M48
; DRILL file {KiCad 5.1.12-84ad8e8a86~92~ubuntu20.04.1} date Fr 10 Dez 2021 13:48:25 CET
; FORMAT={-:-/ absolute / metric / decimal}
; #@! TF.CreationDate,2021-12-10T13:48:25+01:00
; #@! TF.GenerationSoftware,Kicad,Pcbnew,5.1.12-84ad8e8a86~92~ubuntu20.04.1
; #@! TF.FileFunction,Plated,1,2,PTH
FMAT,2
METRIC
T1C0.600
T2C0.686
T3C0.700
T4C0.900
T5C1.000
T6C2.000
T7C2.200
%
G90
G05
T1
X122.63Y-89.59
X122.63Y-94.67
X125.17Y-89.59
X125.17Y-94.67
T2
X148.03Y-84.51
T3
X108.025Y-112.45
X111.81Y-77.5
X111.81Y-80.0
X111.81Y-82.0
X111.81Y-84.5
X115.01Y-71.81
X115.01Y-74.35
X115.01Y-76.89
X115.01Y-79.43
X117.55Y-89.59
X117.55Y-94.67
X120.09Y-71.81
X125.17Y-74.35
X125.17Y-76.89
X125.17Y-79.43
X128.98Y-112.45
X129.615Y-73.08
X130.25Y-84.51
X130.25Y-87.05
X130.25Y-89.59
X130.25Y-92.13
X130.25Y-94.67
X130.25Y-97.21
X130.25Y-99.75
X130.25Y-102.29
X130.25Y-104.83
X130.25Y-107.37
X131.52Y-79.43
X135.355Y-92.867
X135.736Y-86.948
X136.6Y-79.43
X137.87Y-84.51
X137.87Y-87.05
X137.87Y-89.59
X137.87Y-92.13
X137.87Y-94.67
X137.87Y-97.21
X137.87Y-99.75
X137.87Y-102.29
X137.87Y-104.83
X137.87Y-107.37
X139.14Y-112.45
X139.902Y-89.539
X140.384Y-107.361
X142.924Y-107.361
X145.49Y-102.29
X148.03Y-74.35
X148.03Y-79.43
X148.03Y-87.05
X148.03Y-89.59
X148.03Y-92.13
X148.03Y-94.67
X148.03Y-97.21
X148.03Y-99.75
X148.03Y-102.29
X148.03Y-107.37
X148.03Y-112.45
X149.376Y-105.135
X150.896Y-91.98
X151.764Y-106.329
X152.016Y-95.415
X153.089Y-97.185
X153.897Y-105.211
X155.65Y-72.445
X155.65Y-74.35
X155.65Y-79.43
X155.65Y-84.51
X155.65Y-87.05
X155.65Y-89.59
X155.65Y-92.13
X155.65Y-94.67
X155.65Y-97.21
X155.65Y-99.75
X155.65Y-102.29
X155.65Y-107.37
X155.65Y-112.45
X155.65Y-114.355
X159.46Y-87.05
X160.73Y-97.21
X163.27Y-76.89
X165.81Y-76.89
T4
X107.3Y-101.1
X107.3Y-103.2
X107.3Y-105.8
X107.3Y-107.9
X109.8Y-101.1
X109.8Y-107.9
X117.55Y-102.29
X117.55Y-104.83
X117.55Y-107.37
X117.55Y-109.91
X120.09Y-102.29
X120.09Y-104.83
X120.09Y-107.37
X120.09Y-109.91
X131.52Y-71.81
X131.52Y-74.35
X134.06Y-71.81
X134.06Y-74.35
X136.6Y-71.81
X136.6Y-74.35
X140.41Y-99.75
X140.41Y-102.29
X142.24Y-84.51
X142.24Y-87.05
X142.24Y-89.59
X142.95Y-99.75
X142.95Y-102.29
X163.27Y-92.13
X163.27Y-94.67
X163.27Y-97.21
X163.27Y-99.75
X163.27Y-102.29
X164.54Y-83.26
X164.54Y-85.8
X165.81Y-92.13
X165.81Y-94.67
X165.81Y-97.21
X165.81Y-99.75
X165.81Y-102.29
T6
X101.0Y-70.5
X101.0Y-115.5
X166.0Y-70.5
X166.0Y-115.5
T7
X103.5Y-104.5
X104.3Y-97.75
X104.3Y-111.25
T5
G00X109.7Y-74.0
M15
G01X108.5Y-74.0
M16
G05
G00X109.7Y-88.0
M15
G01X108.5Y-88.0
M16
G05
T0
M30
