%FSLAX45Y45*%
G04 Gerber Fmt 4.5, Leading zero omitted, Abs format (unit mm)*
G04 Created by KiCad (PCBNEW 5.1.12-84ad8e8a86~92~ubuntu20.04.1) date 2021-12-10 13:48:25*
%MOMM*%
%LPD*%
G01*
G04 APERTURE LIST*
%TA.AperFunction,Profile*%
%ADD10C,0.150000*%
%TD*%
%ADD11C,0.200000*%
%ADD12C,0.300000*%
G04 APERTURE END LIST*
D10*
X16850000Y-6800000D02*
X9850000Y-6800000D01*
X16850000Y-11800000D02*
X16850000Y-6800000D01*
X9850000Y-11800000D02*
X16850000Y-11800000D01*
X9850000Y-6800000D02*
X9850000Y-11800000D01*
D11*
D12*
X10128928Y-12273214D02*
X10128928Y-11973214D01*
X10200357Y-11973214D01*
X10243214Y-11987500D01*
X10271786Y-12016071D01*
X10286071Y-12044643D01*
X10300357Y-12101786D01*
X10300357Y-12144643D01*
X10286071Y-12201786D01*
X10271786Y-12230357D01*
X10243214Y-12258929D01*
X10200357Y-12273214D01*
X10128928Y-12273214D01*
X10428928Y-12273214D02*
X10428928Y-12073214D01*
X10428928Y-12130357D02*
X10443214Y-12101786D01*
X10457500Y-12087500D01*
X10486071Y-12073214D01*
X10514643Y-12073214D01*
X10614643Y-12273214D02*
X10614643Y-12073214D01*
X10614643Y-11973214D02*
X10600357Y-11987500D01*
X10614643Y-12001786D01*
X10628928Y-11987500D01*
X10614643Y-11973214D01*
X10614643Y-12001786D01*
X10800357Y-12273214D02*
X10771786Y-12258929D01*
X10757500Y-12230357D01*
X10757500Y-11973214D01*
X10957500Y-12273214D02*
X10928928Y-12258929D01*
X10914643Y-12230357D01*
X10914643Y-11973214D01*
X11300357Y-12273214D02*
X11300357Y-11973214D01*
X11400357Y-12187500D01*
X11500357Y-11973214D01*
X11500357Y-12273214D01*
X11771786Y-12273214D02*
X11771786Y-12116071D01*
X11757500Y-12087500D01*
X11728928Y-12073214D01*
X11671786Y-12073214D01*
X11643214Y-12087500D01*
X11771786Y-12258929D02*
X11743214Y-12273214D01*
X11671786Y-12273214D01*
X11643214Y-12258929D01*
X11628928Y-12230357D01*
X11628928Y-12201786D01*
X11643214Y-12173214D01*
X11671786Y-12158929D01*
X11743214Y-12158929D01*
X11771786Y-12144643D01*
X11914643Y-12073214D02*
X11914643Y-12373214D01*
X11914643Y-12087500D02*
X11943214Y-12073214D01*
X12000357Y-12073214D01*
X12028928Y-12087500D01*
X12043214Y-12101786D01*
X12057500Y-12130357D01*
X12057500Y-12216071D01*
X12043214Y-12244643D01*
X12028928Y-12258929D01*
X12000357Y-12273214D01*
X11943214Y-12273214D01*
X11914643Y-12258929D01*
X12186071Y-12244643D02*
X12200357Y-12258929D01*
X12186071Y-12273214D01*
X12171786Y-12258929D01*
X12186071Y-12244643D01*
X12186071Y-12273214D01*
X12186071Y-12087500D02*
X12200357Y-12101786D01*
X12186071Y-12116071D01*
X12171786Y-12101786D01*
X12186071Y-12087500D01*
X12186071Y-12116071D01*
M02*
