G04 #@! TF.GenerationSoftware,KiCad,Pcbnew,5.1.12-84ad8e8a86~92~ubuntu20.04.1*
G04 #@! TF.CreationDate,2021-12-10T13:48:26+01:00*
G04 #@! TF.ProjectId,mouse,6d6f7573-652e-46b6-9963-61645f706362,1*
G04 #@! TF.SameCoordinates,Original*
G04 #@! TF.FileFunction,Legend,Top*
G04 #@! TF.FilePolarity,Positive*
%FSLAX46Y46*%
G04 Gerber Fmt 4.6, Leading zero omitted, Abs format (unit mm)*
G04 Created by KiCad (PCBNEW 5.1.12-84ad8e8a86~92~ubuntu20.04.1) date 2021-12-10 13:48:26*
%MOMM*%
%LPD*%
G01*
G04 APERTURE LIST*
%ADD10C,0.300000*%
%ADD11C,0.150000*%
G04 APERTURE END LIST*
D10*
X106932857Y-115938571D02*
X106932857Y-117152857D01*
X106861428Y-117295714D01*
X106789999Y-117367142D01*
X106647142Y-117438571D01*
X106432857Y-117438571D01*
X106289999Y-117367142D01*
X106932857Y-116867142D02*
X106789999Y-116938571D01*
X106504285Y-116938571D01*
X106361428Y-116867142D01*
X106289999Y-116795714D01*
X106218571Y-116652857D01*
X106218571Y-116224285D01*
X106289999Y-116081428D01*
X106361428Y-116010000D01*
X106504285Y-115938571D01*
X106789999Y-115938571D01*
X106932857Y-116010000D01*
X107647142Y-116938571D02*
X107647142Y-115938571D01*
X107647142Y-115438571D02*
X107575714Y-115510000D01*
X107647142Y-115581428D01*
X107718571Y-115510000D01*
X107647142Y-115438571D01*
X107647142Y-115581428D01*
X108147142Y-115938571D02*
X108718571Y-115938571D01*
X108361428Y-115438571D02*
X108361428Y-116724285D01*
X108432857Y-116867142D01*
X108575714Y-116938571D01*
X108718571Y-116938571D01*
X109218571Y-116938571D02*
X109218571Y-115438571D01*
X109861428Y-116938571D02*
X109861428Y-116152857D01*
X109789999Y-116010000D01*
X109647142Y-115938571D01*
X109432857Y-115938571D01*
X109289999Y-116010000D01*
X109218571Y-116081428D01*
X111218571Y-115938571D02*
X111218571Y-116938571D01*
X110575714Y-115938571D02*
X110575714Y-116724285D01*
X110647142Y-116867142D01*
X110789999Y-116938571D01*
X111004285Y-116938571D01*
X111147142Y-116867142D01*
X111218571Y-116795714D01*
X111932857Y-116938571D02*
X111932857Y-115438571D01*
X111932857Y-116010000D02*
X112075714Y-115938571D01*
X112361428Y-115938571D01*
X112504285Y-116010000D01*
X112575714Y-116081428D01*
X112647142Y-116224285D01*
X112647142Y-116652857D01*
X112575714Y-116795714D01*
X112504285Y-116867142D01*
X112361428Y-116938571D01*
X112075714Y-116938571D01*
X111932857Y-116867142D01*
X113289999Y-116795714D02*
X113361428Y-116867142D01*
X113289999Y-116938571D01*
X113218571Y-116867142D01*
X113289999Y-116795714D01*
X113289999Y-116938571D01*
X114647142Y-116867142D02*
X114504285Y-116938571D01*
X114218571Y-116938571D01*
X114075714Y-116867142D01*
X114004285Y-116795714D01*
X113932857Y-116652857D01*
X113932857Y-116224285D01*
X114004285Y-116081428D01*
X114075714Y-116010000D01*
X114218571Y-115938571D01*
X114504285Y-115938571D01*
X114647142Y-116010000D01*
X115504285Y-116938571D02*
X115361428Y-116867142D01*
X115289999Y-116795714D01*
X115218571Y-116652857D01*
X115218571Y-116224285D01*
X115289999Y-116081428D01*
X115361428Y-116010000D01*
X115504285Y-115938571D01*
X115718571Y-115938571D01*
X115861428Y-116010000D01*
X115932857Y-116081428D01*
X116004285Y-116224285D01*
X116004285Y-116652857D01*
X115932857Y-116795714D01*
X115861428Y-116867142D01*
X115718571Y-116938571D01*
X115504285Y-116938571D01*
X116647142Y-116938571D02*
X116647142Y-115938571D01*
X116647142Y-116081428D02*
X116718571Y-116010000D01*
X116861428Y-115938571D01*
X117075714Y-115938571D01*
X117218571Y-116010000D01*
X117289999Y-116152857D01*
X117289999Y-116938571D01*
X117289999Y-116152857D02*
X117361428Y-116010000D01*
X117504285Y-115938571D01*
X117718571Y-115938571D01*
X117861428Y-116010000D01*
X117932857Y-116152857D01*
X117932857Y-116938571D01*
X119718571Y-115367142D02*
X118432857Y-117295714D01*
X120218571Y-116938571D02*
X120218571Y-115938571D01*
X120218571Y-115438571D02*
X120147142Y-115510000D01*
X120218571Y-115581428D01*
X120289999Y-115510000D01*
X120218571Y-115438571D01*
X120218571Y-115581428D01*
X120932857Y-116938571D02*
X120932857Y-115938571D01*
X120932857Y-116224285D02*
X121004285Y-116081428D01*
X121075714Y-116010000D01*
X121218571Y-115938571D01*
X121361428Y-115938571D01*
X122504285Y-115938571D02*
X122504285Y-117438571D01*
X122504285Y-116867142D02*
X122361428Y-116938571D01*
X122075714Y-116938571D01*
X121932857Y-116867142D01*
X121861428Y-116795714D01*
X121789999Y-116652857D01*
X121789999Y-116224285D01*
X121861428Y-116081428D01*
X121932857Y-116010000D01*
X122075714Y-115938571D01*
X122361428Y-115938571D01*
X122504285Y-116010000D01*
X123218571Y-116938571D02*
X123218571Y-115938571D01*
X123218571Y-116081428D02*
X123290000Y-116010000D01*
X123432857Y-115938571D01*
X123647142Y-115938571D01*
X123790000Y-116010000D01*
X123861428Y-116152857D01*
X123861428Y-116938571D01*
X123861428Y-116152857D02*
X123932857Y-116010000D01*
X124075714Y-115938571D01*
X124290000Y-115938571D01*
X124432857Y-116010000D01*
X124504285Y-116152857D01*
X124504285Y-116938571D01*
X125861428Y-116938571D02*
X125861428Y-116152857D01*
X125790000Y-116010000D01*
X125647142Y-115938571D01*
X125361428Y-115938571D01*
X125218571Y-116010000D01*
X125861428Y-116867142D02*
X125718571Y-116938571D01*
X125361428Y-116938571D01*
X125218571Y-116867142D01*
X125147142Y-116724285D01*
X125147142Y-116581428D01*
X125218571Y-116438571D01*
X125361428Y-116367142D01*
X125718571Y-116367142D01*
X125861428Y-116295714D01*
X126504285Y-116867142D02*
X126647142Y-116938571D01*
X126932857Y-116938571D01*
X127075714Y-116867142D01*
X127147142Y-116724285D01*
X127147142Y-116652857D01*
X127075714Y-116510000D01*
X126932857Y-116438571D01*
X126718571Y-116438571D01*
X126575714Y-116367142D01*
X126504285Y-116224285D01*
X126504285Y-116152857D01*
X126575714Y-116010000D01*
X126718571Y-115938571D01*
X126932857Y-115938571D01*
X127075714Y-116010000D01*
X127790000Y-116938571D02*
X127790000Y-115438571D01*
X127932857Y-116367142D02*
X128361428Y-116938571D01*
X128361428Y-115938571D02*
X127790000Y-116510000D01*
X130075714Y-115367142D02*
X128789999Y-117295714D01*
X130575714Y-116938571D02*
X130575714Y-115938571D01*
X130575714Y-116081428D02*
X130647142Y-116010000D01*
X130789999Y-115938571D01*
X131004285Y-115938571D01*
X131147142Y-116010000D01*
X131218571Y-116152857D01*
X131218571Y-116938571D01*
X131218571Y-116152857D02*
X131289999Y-116010000D01*
X131432857Y-115938571D01*
X131647142Y-115938571D01*
X131789999Y-116010000D01*
X131861428Y-116152857D01*
X131861428Y-116938571D01*
X132789999Y-116938571D02*
X132647142Y-116867142D01*
X132575714Y-116795714D01*
X132504285Y-116652857D01*
X132504285Y-116224285D01*
X132575714Y-116081428D01*
X132647142Y-116010000D01*
X132789999Y-115938571D01*
X133004285Y-115938571D01*
X133147142Y-116010000D01*
X133218571Y-116081428D01*
X133289999Y-116224285D01*
X133289999Y-116652857D01*
X133218571Y-116795714D01*
X133147142Y-116867142D01*
X133004285Y-116938571D01*
X132789999Y-116938571D01*
X134575714Y-115938571D02*
X134575714Y-116938571D01*
X133932857Y-115938571D02*
X133932857Y-116724285D01*
X134004285Y-116867142D01*
X134147142Y-116938571D01*
X134361428Y-116938571D01*
X134504285Y-116867142D01*
X134575714Y-116795714D01*
X135218571Y-116867142D02*
X135361428Y-116938571D01*
X135647142Y-116938571D01*
X135790000Y-116867142D01*
X135861428Y-116724285D01*
X135861428Y-116652857D01*
X135790000Y-116510000D01*
X135647142Y-116438571D01*
X135432857Y-116438571D01*
X135290000Y-116367142D01*
X135218571Y-116224285D01*
X135218571Y-116152857D01*
X135290000Y-116010000D01*
X135432857Y-115938571D01*
X135647142Y-115938571D01*
X135790000Y-116010000D01*
X137075714Y-116867142D02*
X136932857Y-116938571D01*
X136647142Y-116938571D01*
X136504285Y-116867142D01*
X136432857Y-116724285D01*
X136432857Y-116152857D01*
X136504285Y-116010000D01*
X136647142Y-115938571D01*
X136932857Y-115938571D01*
X137075714Y-116010000D01*
X137147142Y-116152857D01*
X137147142Y-116295714D01*
X136432857Y-116438571D01*
X137432857Y-117081428D02*
X138575714Y-117081428D01*
X139575714Y-116938571D02*
X139575714Y-116152857D01*
X139504285Y-116010000D01*
X139361428Y-115938571D01*
X139075714Y-115938571D01*
X138932857Y-116010000D01*
X139575714Y-116867142D02*
X139432857Y-116938571D01*
X139075714Y-116938571D01*
X138932857Y-116867142D01*
X138861428Y-116724285D01*
X138861428Y-116581428D01*
X138932857Y-116438571D01*
X139075714Y-116367142D01*
X139432857Y-116367142D01*
X139575714Y-116295714D01*
X140932857Y-116938571D02*
X140932857Y-115438571D01*
X140932857Y-116867142D02*
X140790000Y-116938571D01*
X140504285Y-116938571D01*
X140361428Y-116867142D01*
X140290000Y-116795714D01*
X140218571Y-116652857D01*
X140218571Y-116224285D01*
X140290000Y-116081428D01*
X140361428Y-116010000D01*
X140504285Y-115938571D01*
X140790000Y-115938571D01*
X140932857Y-116010000D01*
X142290000Y-116938571D02*
X142290000Y-116152857D01*
X142218571Y-116010000D01*
X142075714Y-115938571D01*
X141790000Y-115938571D01*
X141647142Y-116010000D01*
X142290000Y-116867142D02*
X142147142Y-116938571D01*
X141790000Y-116938571D01*
X141647142Y-116867142D01*
X141575714Y-116724285D01*
X141575714Y-116581428D01*
X141647142Y-116438571D01*
X141790000Y-116367142D01*
X142147142Y-116367142D01*
X142290000Y-116295714D01*
X143004285Y-115938571D02*
X143004285Y-117438571D01*
X143004285Y-116010000D02*
X143147142Y-115938571D01*
X143432857Y-115938571D01*
X143575714Y-116010000D01*
X143647142Y-116081428D01*
X143718571Y-116224285D01*
X143718571Y-116652857D01*
X143647142Y-116795714D01*
X143575714Y-116867142D01*
X143432857Y-116938571D01*
X143147142Y-116938571D01*
X143004285Y-116867142D01*
X144147142Y-115938571D02*
X144718571Y-115938571D01*
X144361428Y-115438571D02*
X144361428Y-116724285D01*
X144432857Y-116867142D01*
X144575714Y-116938571D01*
X144718571Y-116938571D01*
X145790000Y-116867142D02*
X145647142Y-116938571D01*
X145361428Y-116938571D01*
X145218571Y-116867142D01*
X145147142Y-116724285D01*
X145147142Y-116152857D01*
X145218571Y-116010000D01*
X145361428Y-115938571D01*
X145647142Y-115938571D01*
X145790000Y-116010000D01*
X145861428Y-116152857D01*
X145861428Y-116295714D01*
X145147142Y-116438571D01*
X146504285Y-116938571D02*
X146504285Y-115938571D01*
X146504285Y-116224285D02*
X146575714Y-116081428D01*
X146647142Y-116010000D01*
X146790000Y-115938571D01*
X146932857Y-115938571D01*
X147075714Y-117081428D02*
X148218571Y-117081428D01*
X148575714Y-115938571D02*
X148575714Y-117438571D01*
X148575714Y-116010000D02*
X148718571Y-115938571D01*
X149004285Y-115938571D01*
X149147142Y-116010000D01*
X149218571Y-116081428D01*
X149290000Y-116224285D01*
X149290000Y-116652857D01*
X149218571Y-116795714D01*
X149147142Y-116867142D01*
X149004285Y-116938571D01*
X148718571Y-116938571D01*
X148575714Y-116867142D01*
X149861428Y-116867142D02*
X150004285Y-116938571D01*
X150290000Y-116938571D01*
X150432857Y-116867142D01*
X150504285Y-116724285D01*
X150504285Y-116652857D01*
X150432857Y-116510000D01*
X150290000Y-116438571D01*
X150075714Y-116438571D01*
X149932857Y-116367142D01*
X149861428Y-116224285D01*
X149861428Y-116152857D01*
X149932857Y-116010000D01*
X150075714Y-115938571D01*
X150290000Y-115938571D01*
X150432857Y-116010000D01*
X151075714Y-115581428D02*
X151147142Y-115510000D01*
X151290000Y-115438571D01*
X151647142Y-115438571D01*
X151790000Y-115510000D01*
X151861428Y-115581428D01*
X151932857Y-115724285D01*
X151932857Y-115867142D01*
X151861428Y-116081428D01*
X151004285Y-116938571D01*
X151932857Y-116938571D01*
X152218571Y-117081428D02*
X153361428Y-117081428D01*
X153647142Y-116867142D02*
X153790000Y-116938571D01*
X154075714Y-116938571D01*
X154218571Y-116867142D01*
X154290000Y-116724285D01*
X154290000Y-116652857D01*
X154218571Y-116510000D01*
X154075714Y-116438571D01*
X153861428Y-116438571D01*
X153718571Y-116367142D01*
X153647142Y-116224285D01*
X153647142Y-116152857D01*
X153718571Y-116010000D01*
X153861428Y-115938571D01*
X154075714Y-115938571D01*
X154218571Y-116010000D01*
X155504285Y-116867142D02*
X155361428Y-116938571D01*
X155075714Y-116938571D01*
X154932857Y-116867142D01*
X154861428Y-116724285D01*
X154861428Y-116152857D01*
X154932857Y-116010000D01*
X155075714Y-115938571D01*
X155361428Y-115938571D01*
X155504285Y-116010000D01*
X155575714Y-116152857D01*
X155575714Y-116295714D01*
X154861428Y-116438571D01*
X156218571Y-116938571D02*
X156218571Y-115938571D01*
X156218571Y-116224285D02*
X156290000Y-116081428D01*
X156361428Y-116010000D01*
X156504285Y-115938571D01*
X156647142Y-115938571D01*
X157147142Y-116938571D02*
X157147142Y-115938571D01*
X157147142Y-115438571D02*
X157075714Y-115510000D01*
X157147142Y-115581428D01*
X157218571Y-115510000D01*
X157147142Y-115438571D01*
X157147142Y-115581428D01*
X158504285Y-116938571D02*
X158504285Y-116152857D01*
X158432857Y-116010000D01*
X158290000Y-115938571D01*
X158004285Y-115938571D01*
X157861428Y-116010000D01*
X158504285Y-116867142D02*
X158361428Y-116938571D01*
X158004285Y-116938571D01*
X157861428Y-116867142D01*
X157790000Y-116724285D01*
X157790000Y-116581428D01*
X157861428Y-116438571D01*
X158004285Y-116367142D01*
X158361428Y-116367142D01*
X158504285Y-116295714D01*
X159432857Y-116938571D02*
X159290000Y-116867142D01*
X159218571Y-116724285D01*
X159218571Y-115438571D01*
X160444285Y-83688571D02*
X159730000Y-83688571D01*
X159658571Y-84402857D01*
X159730000Y-84331428D01*
X159872857Y-84260000D01*
X160230000Y-84260000D01*
X160372857Y-84331428D01*
X160444285Y-84402857D01*
X160515714Y-84545714D01*
X160515714Y-84902857D01*
X160444285Y-85045714D01*
X160372857Y-85117142D01*
X160230000Y-85188571D01*
X159872857Y-85188571D01*
X159730000Y-85117142D01*
X159658571Y-85045714D01*
X160944285Y-83688571D02*
X161444285Y-85188571D01*
X161944285Y-83688571D01*
X160158571Y-82712142D02*
X161301428Y-82712142D01*
X160730000Y-83283571D02*
X160730000Y-82140714D01*
D11*
X98800000Y-114500000D02*
X98800000Y-113300000D01*
X98800000Y-113300000D02*
X100000000Y-113300000D01*
X98800000Y-116500000D02*
X98800000Y-117700000D01*
X98800000Y-117700000D02*
X100000000Y-117700000D01*
X102000000Y-117700000D02*
X103200000Y-117700000D01*
X103200000Y-117700000D02*
X103200000Y-116500000D01*
X103200000Y-114500000D02*
X103200000Y-113300000D01*
X103200000Y-113300000D02*
X102000000Y-113300000D01*
X163800000Y-114500000D02*
X163800000Y-113300000D01*
X163800000Y-113300000D02*
X165000000Y-113300000D01*
X163800000Y-116500000D02*
X163800000Y-117700000D01*
X163800000Y-117700000D02*
X165000000Y-117700000D01*
X167000000Y-117700000D02*
X168200000Y-117700000D01*
X168200000Y-117700000D02*
X168200000Y-116500000D01*
X168200000Y-114500000D02*
X168200000Y-113300000D01*
X168200000Y-113300000D02*
X167000000Y-113300000D01*
X163800000Y-69500000D02*
X163800000Y-68300000D01*
X163800000Y-68300000D02*
X165000000Y-68300000D01*
X163800000Y-71500000D02*
X163800000Y-72700000D01*
X163800000Y-72700000D02*
X165000000Y-72700000D01*
X167000000Y-72700000D02*
X168200000Y-72700000D01*
X168200000Y-72700000D02*
X168200000Y-71500000D01*
X168200000Y-69500000D02*
X168200000Y-68300000D01*
X168200000Y-68300000D02*
X167000000Y-68300000D01*
X98800000Y-69500000D02*
X98800000Y-68300000D01*
X98800000Y-68300000D02*
X100000000Y-68300000D01*
X98800000Y-71500000D02*
X98800000Y-72700000D01*
X98800000Y-72700000D02*
X100000000Y-72700000D01*
X102000000Y-72700000D02*
X103200000Y-72700000D01*
X103200000Y-72700000D02*
X103200000Y-71500000D01*
X103200000Y-69500000D02*
X103200000Y-68300000D01*
X103200000Y-68300000D02*
X102000000Y-68300000D01*
X98800000Y-111500000D02*
X102300000Y-111500000D01*
X111800000Y-111500000D02*
X106300000Y-111500000D01*
X111800000Y-97500000D02*
X106300000Y-97500000D01*
X102300000Y-97500000D02*
X98800000Y-97500000D01*
X111800000Y-97500000D02*
X111800000Y-111500000D01*
X98800000Y-111500000D02*
X98800000Y-97500000D01*
X123900000Y-95228800D02*
X124509600Y-94974800D01*
X123900000Y-94822400D02*
X123900000Y-95228800D01*
X123900000Y-94111200D02*
X123290400Y-94365200D01*
X123900000Y-94517600D02*
X123900000Y-94111200D01*
X124357200Y-94822400D02*
X123442800Y-94822400D01*
X124357200Y-94517600D02*
X123442800Y-94517600D01*
X124357200Y-89437600D02*
X123442800Y-89437600D01*
X124357200Y-89742400D02*
X123442800Y-89742400D01*
X123900000Y-89437600D02*
X123900000Y-89031200D01*
X123900000Y-89031200D02*
X123290400Y-89285200D01*
X123900000Y-89742400D02*
X123900000Y-90148800D01*
X123900000Y-90148800D02*
X124509600Y-89894800D01*
X134314000Y-80001500D02*
X134314000Y-78858500D01*
X133806000Y-78858500D02*
X133806000Y-80001500D01*
X133806000Y-79430000D02*
X132790000Y-79430000D01*
X134314000Y-79430000D02*
X135330000Y-79430000D01*
X137870000Y-78160000D02*
X137870000Y-80700000D01*
X130250000Y-78160000D02*
X137870000Y-78160000D01*
X130250000Y-80700000D02*
X130250000Y-78160000D01*
X137870000Y-80700000D02*
X130250000Y-80700000D01*
X153110000Y-73080000D02*
X153110000Y-78160000D01*
X158190000Y-73080000D02*
X153110000Y-73080000D01*
X158190000Y-78160000D02*
X158190000Y-73080000D01*
X153110000Y-80700000D02*
X158190000Y-80700000D01*
X156221500Y-76636000D02*
X155078500Y-76636000D01*
X155078500Y-77144000D02*
X156221500Y-77144000D01*
X155650000Y-77144000D02*
X155650000Y-78160000D01*
X155650000Y-76636000D02*
X155650000Y-75620000D01*
X158190000Y-80700000D02*
X158190000Y-78160000D01*
X153110000Y-78160000D02*
X153110000Y-80700000D01*
X158190000Y-108640000D02*
X158190000Y-106100000D01*
X153110000Y-106100000D02*
X153110000Y-108640000D01*
X155650000Y-110164000D02*
X155650000Y-111180000D01*
X155650000Y-109656000D02*
X155650000Y-108640000D01*
X156221500Y-109656000D02*
X155078500Y-109656000D01*
X155078500Y-110164000D02*
X156221500Y-110164000D01*
X158190000Y-106100000D02*
X153110000Y-106100000D01*
X153110000Y-108640000D02*
X153110000Y-113720000D01*
X153110000Y-113720000D02*
X158190000Y-113720000D01*
X158190000Y-113720000D02*
X158190000Y-108640000D01*
X150570000Y-75620000D02*
X150570000Y-73080000D01*
X145490000Y-73080000D02*
X145490000Y-75620000D01*
X148030000Y-77144000D02*
X148030000Y-78160000D01*
X148030000Y-76636000D02*
X148030000Y-75620000D01*
X148601500Y-76636000D02*
X147458500Y-76636000D01*
X147458500Y-77144000D02*
X148601500Y-77144000D01*
X150570000Y-73080000D02*
X145490000Y-73080000D01*
X145490000Y-75620000D02*
X145490000Y-80700000D01*
X145490000Y-80700000D02*
X150570000Y-80700000D01*
X150570000Y-80700000D02*
X150570000Y-75620000D01*
X145490000Y-106100000D02*
X145490000Y-111180000D01*
X150570000Y-106100000D02*
X145490000Y-106100000D01*
X150570000Y-111180000D02*
X150570000Y-106100000D01*
X145490000Y-113720000D02*
X150570000Y-113720000D01*
X148601500Y-109656000D02*
X147458500Y-109656000D01*
X147458500Y-110164000D02*
X148601500Y-110164000D01*
X148030000Y-110164000D02*
X148030000Y-111180000D01*
X148030000Y-109656000D02*
X148030000Y-108640000D01*
X150570000Y-113720000D02*
X150570000Y-111180000D01*
X145490000Y-111180000D02*
X145490000Y-113720000D01*
X167791200Y-76890000D02*
G75*
G03*
X167791200Y-76890000I-3251200J0D01*
G01*
X162762000Y-75112000D02*
X163524000Y-75112000D01*
X163143000Y-75493000D02*
X163143000Y-74731000D01*
X139825566Y-106090989D02*
X139825566Y-108630989D01*
X142571230Y-108336516D02*
G75*
G03*
X142924366Y-107360989I-1170864J975527D01*
G01*
X142922477Y-107360520D02*
G75*
G03*
X142538286Y-106350069I-1522111J-469D01*
G01*
X139878219Y-107361023D02*
G75*
G03*
X140244666Y-108351589I1522147J34D01*
G01*
X140229502Y-106385462D02*
G75*
G03*
X139876366Y-107360989I1170864J-975527D01*
G01*
X140161200Y-108248144D02*
G75*
G03*
X141400366Y-108884989I1239166J887155D01*
G01*
X141401167Y-108884989D02*
G75*
G03*
X142619566Y-108275389I-801J1524000D01*
G01*
X141399924Y-105838783D02*
G75*
G03*
X140198946Y-106426269I442J-1522206D01*
G01*
X142602930Y-106424818D02*
G75*
G03*
X141400366Y-105836989I-1202564J-936171D01*
G01*
X141400366Y-107995989D02*
G75*
G03*
X142035366Y-107360989I0J635000D01*
G01*
X141400366Y-108376989D02*
G75*
G03*
X142416366Y-107360989I0J1016000D01*
G01*
X141400366Y-106725989D02*
G75*
G03*
X140765366Y-107360989I0J-635000D01*
G01*
X141400366Y-106344989D02*
G75*
G03*
X140384366Y-107360989I0J-1016000D01*
G01*
X139841486Y-108664415D02*
G75*
G03*
X141400366Y-109392989I1558880J1303426D01*
G01*
X141401341Y-109390449D02*
G75*
G03*
X143191066Y-108316029I-975J2029460D01*
G01*
X141397814Y-105331603D02*
G75*
G03*
X139850966Y-106050349I2552J-2029386D01*
G01*
X143163665Y-106351138D02*
G75*
G03*
X141400366Y-105328989I-1763299J-1009851D01*
G01*
X143189496Y-108324336D02*
G75*
G03*
X143432366Y-107360989I-1789130J963347D01*
G01*
X143431289Y-107360889D02*
G75*
G03*
X143130106Y-106296729I-2030923J-100D01*
G01*
X139140000Y-103560000D02*
X139140000Y-101020000D01*
X144220000Y-103560000D02*
X139140000Y-103560000D01*
X144220000Y-101020000D02*
X144220000Y-103560000D01*
X139140000Y-101020000D02*
X144220000Y-101020000D01*
X139140000Y-98480000D02*
X144220000Y-98480000D01*
X144220000Y-98480000D02*
X144220000Y-101020000D01*
X144220000Y-101020000D02*
X139140000Y-101020000D01*
X139140000Y-101020000D02*
X139140000Y-98480000D01*
X137870000Y-70540000D02*
X137870000Y-75620000D01*
X130250000Y-70540000D02*
X137870000Y-70540000D01*
X130250000Y-75620000D02*
X130250000Y-70540000D01*
X137870000Y-75620000D02*
X130250000Y-75620000D01*
X166790440Y-82030960D02*
X162289560Y-82030960D01*
X166790440Y-87029680D02*
X166790440Y-82030960D01*
X162289560Y-87029680D02*
X166790440Y-87029680D01*
X162289560Y-82030960D02*
X162289560Y-87029680D01*
X162541020Y-83529560D02*
X162541020Y-85531080D01*
X162789940Y-83529560D02*
X162541020Y-83529560D01*
X162789940Y-85531080D02*
X162789940Y-83529560D01*
X162541020Y-85531080D02*
X162789940Y-85531080D01*
X98800000Y-74350000D02*
X107100000Y-74350000D01*
X98800000Y-87650000D02*
X98800000Y-74350000D01*
X98800000Y-87650000D02*
X107100000Y-87650000D01*
X112850000Y-87650000D02*
X111100000Y-87650000D01*
X112850000Y-74350000D02*
X112850000Y-87650000D01*
X111100000Y-74350000D02*
X112850000Y-74350000D01*
X140970000Y-83240000D02*
X143510000Y-83240000D01*
X140970000Y-90860000D02*
X140970000Y-83240000D01*
X143510000Y-90860000D02*
X140970000Y-90860000D01*
X143510000Y-83240000D02*
X143510000Y-90860000D01*
X116280000Y-101020000D02*
X121360000Y-101020000D01*
X116280000Y-111180000D02*
X116280000Y-101020000D01*
X121360000Y-111180000D02*
X116280000Y-111180000D01*
X121360000Y-101020000D02*
X121360000Y-111180000D01*
X162000000Y-90860000D02*
X167080000Y-90860000D01*
X162000000Y-103560000D02*
X162000000Y-90860000D01*
X167080000Y-103560000D02*
X162000000Y-103560000D01*
X167080000Y-90860000D02*
X167080000Y-103560000D01*
X117550000Y-73080000D02*
X122630000Y-73080000D01*
X122630000Y-73080000D02*
X122630000Y-75620000D01*
X122630000Y-75620000D02*
X117550000Y-75620000D01*
X117550000Y-75620000D02*
X117550000Y-73080000D01*
X117550000Y-74350000D02*
X116280000Y-74350000D01*
X122630000Y-74350000D02*
X123900000Y-74350000D01*
X136600000Y-112450000D02*
X137870000Y-112450000D01*
X131520000Y-112450000D02*
X130250000Y-112450000D01*
X131520000Y-113720000D02*
X131520000Y-111180000D01*
X136600000Y-113720000D02*
X131520000Y-113720000D01*
X136600000Y-111180000D02*
X136600000Y-113720000D01*
X131520000Y-111180000D02*
X136600000Y-111180000D01*
X117550000Y-75620000D02*
X122630000Y-75620000D01*
X122630000Y-75620000D02*
X122630000Y-78160000D01*
X122630000Y-78160000D02*
X117550000Y-78160000D01*
X117550000Y-78160000D02*
X117550000Y-75620000D01*
X117550000Y-76890000D02*
X116280000Y-76890000D01*
X122630000Y-76890000D02*
X123900000Y-76890000D01*
X122630000Y-79430000D02*
X123900000Y-79430000D01*
X117550000Y-79430000D02*
X116280000Y-79430000D01*
X117550000Y-80700000D02*
X117550000Y-78160000D01*
X122630000Y-80700000D02*
X117550000Y-80700000D01*
X122630000Y-78160000D02*
X122630000Y-80700000D01*
X117550000Y-78160000D02*
X122630000Y-78160000D01*
X119800440Y-95630120D02*
X119800440Y-88629880D01*
X115299560Y-95630120D02*
X115299560Y-88629880D01*
X119800440Y-88629880D02*
G75*
G03*
X117550000Y-86379440I-2250440J0D01*
G01*
X117550000Y-86379440D02*
G75*
G03*
X115299560Y-88629880I0J-2250440D01*
G01*
X115299560Y-95630120D02*
G75*
G03*
X117550000Y-97880560I2250440J0D01*
G01*
X117550000Y-97880560D02*
G75*
G03*
X119800440Y-95630120I0J2250440D01*
G01*
X149300000Y-83240000D02*
X150570000Y-83240000D01*
X153110000Y-83240000D02*
X154380000Y-83240000D01*
X149300000Y-103560000D02*
X149300000Y-83240000D01*
X154380000Y-103560000D02*
X149300000Y-103560000D01*
X154380000Y-83240000D02*
X154380000Y-103560000D01*
X150570000Y-83240000D02*
G75*
G03*
X151840000Y-84510000I1270000J0D01*
G01*
X151840000Y-84510000D02*
G75*
G03*
X153110000Y-83240000I0J1270000D01*
G01*
X131520000Y-83240000D02*
X132790000Y-83240000D01*
X135330000Y-83240000D02*
X136600000Y-83240000D01*
X131520000Y-108640000D02*
X131520000Y-83240000D01*
X136600000Y-108640000D02*
X131520000Y-108640000D01*
X136600000Y-83240000D02*
X136600000Y-108640000D01*
X132790000Y-83240000D02*
G75*
G03*
X134060000Y-84510000I1270000J0D01*
G01*
X134060000Y-84510000D02*
G75*
G03*
X135330000Y-83240000I0J1270000D01*
G01*
X117296000Y-71238500D02*
X117296000Y-72381500D01*
X117804000Y-72381500D02*
X117804000Y-71238500D01*
X117804000Y-71810000D02*
X118820000Y-71810000D01*
X117296000Y-71810000D02*
X116280000Y-71810000D01*
X113740000Y-73080000D02*
X113740000Y-70540000D01*
X121360000Y-73080000D02*
X113740000Y-73080000D01*
X121360000Y-70540000D02*
X121360000Y-73080000D01*
X113740000Y-70540000D02*
X121360000Y-70540000D01*
X99436666Y-96027380D02*
X99436666Y-96741666D01*
X99389047Y-96884523D01*
X99293809Y-96979761D01*
X99150952Y-97027380D01*
X99055714Y-97027380D01*
X99817619Y-96027380D02*
X100484285Y-96027380D01*
X100055714Y-97027380D01*
X126908333Y-95027142D02*
X126860714Y-95074761D01*
X126717857Y-95122380D01*
X126622619Y-95122380D01*
X126479761Y-95074761D01*
X126384523Y-94979523D01*
X126336904Y-94884285D01*
X126289285Y-94693809D01*
X126289285Y-94550952D01*
X126336904Y-94360476D01*
X126384523Y-94265238D01*
X126479761Y-94170000D01*
X126622619Y-94122380D01*
X126717857Y-94122380D01*
X126860714Y-94170000D01*
X126908333Y-94217619D01*
X127289285Y-94217619D02*
X127336904Y-94170000D01*
X127432142Y-94122380D01*
X127670238Y-94122380D01*
X127765476Y-94170000D01*
X127813095Y-94217619D01*
X127860714Y-94312857D01*
X127860714Y-94408095D01*
X127813095Y-94550952D01*
X127241666Y-95122380D01*
X127860714Y-95122380D01*
X122828571Y-93217380D02*
X122257142Y-93217380D01*
X122542857Y-93217380D02*
X122542857Y-92217380D01*
X122447619Y-92360238D01*
X122352380Y-92455476D01*
X122257142Y-92503095D01*
X123400000Y-92645952D02*
X123304761Y-92598333D01*
X123257142Y-92550714D01*
X123209523Y-92455476D01*
X123209523Y-92407857D01*
X123257142Y-92312619D01*
X123304761Y-92265000D01*
X123400000Y-92217380D01*
X123590476Y-92217380D01*
X123685714Y-92265000D01*
X123733333Y-92312619D01*
X123780952Y-92407857D01*
X123780952Y-92455476D01*
X123733333Y-92550714D01*
X123685714Y-92598333D01*
X123590476Y-92645952D01*
X123400000Y-92645952D01*
X123304761Y-92693571D01*
X123257142Y-92741190D01*
X123209523Y-92836428D01*
X123209523Y-93026904D01*
X123257142Y-93122142D01*
X123304761Y-93169761D01*
X123400000Y-93217380D01*
X123590476Y-93217380D01*
X123685714Y-93169761D01*
X123733333Y-93122142D01*
X123780952Y-93026904D01*
X123780952Y-92836428D01*
X123733333Y-92741190D01*
X123685714Y-92693571D01*
X123590476Y-92645952D01*
X124209523Y-92550714D02*
X124209523Y-93550714D01*
X124209523Y-92598333D02*
X124304761Y-92550714D01*
X124495238Y-92550714D01*
X124590476Y-92598333D01*
X124638095Y-92645952D01*
X124685714Y-92741190D01*
X124685714Y-93026904D01*
X124638095Y-93122142D01*
X124590476Y-93169761D01*
X124495238Y-93217380D01*
X124304761Y-93217380D01*
X124209523Y-93169761D01*
X125447619Y-92693571D02*
X125114285Y-92693571D01*
X125114285Y-93217380D02*
X125114285Y-92217380D01*
X125590476Y-92217380D01*
X126908333Y-89947142D02*
X126860714Y-89994761D01*
X126717857Y-90042380D01*
X126622619Y-90042380D01*
X126479761Y-89994761D01*
X126384523Y-89899523D01*
X126336904Y-89804285D01*
X126289285Y-89613809D01*
X126289285Y-89470952D01*
X126336904Y-89280476D01*
X126384523Y-89185238D01*
X126479761Y-89090000D01*
X126622619Y-89042380D01*
X126717857Y-89042380D01*
X126860714Y-89090000D01*
X126908333Y-89137619D01*
X127241666Y-89042380D02*
X127860714Y-89042380D01*
X127527380Y-89423333D01*
X127670238Y-89423333D01*
X127765476Y-89470952D01*
X127813095Y-89518571D01*
X127860714Y-89613809D01*
X127860714Y-89851904D01*
X127813095Y-89947142D01*
X127765476Y-89994761D01*
X127670238Y-90042380D01*
X127384523Y-90042380D01*
X127289285Y-89994761D01*
X127241666Y-89947142D01*
X122828571Y-88137380D02*
X122257142Y-88137380D01*
X122542857Y-88137380D02*
X122542857Y-87137380D01*
X122447619Y-87280238D01*
X122352380Y-87375476D01*
X122257142Y-87423095D01*
X123400000Y-87565952D02*
X123304761Y-87518333D01*
X123257142Y-87470714D01*
X123209523Y-87375476D01*
X123209523Y-87327857D01*
X123257142Y-87232619D01*
X123304761Y-87185000D01*
X123400000Y-87137380D01*
X123590476Y-87137380D01*
X123685714Y-87185000D01*
X123733333Y-87232619D01*
X123780952Y-87327857D01*
X123780952Y-87375476D01*
X123733333Y-87470714D01*
X123685714Y-87518333D01*
X123590476Y-87565952D01*
X123400000Y-87565952D01*
X123304761Y-87613571D01*
X123257142Y-87661190D01*
X123209523Y-87756428D01*
X123209523Y-87946904D01*
X123257142Y-88042142D01*
X123304761Y-88089761D01*
X123400000Y-88137380D01*
X123590476Y-88137380D01*
X123685714Y-88089761D01*
X123733333Y-88042142D01*
X123780952Y-87946904D01*
X123780952Y-87756428D01*
X123733333Y-87661190D01*
X123685714Y-87613571D01*
X123590476Y-87565952D01*
X124209523Y-87470714D02*
X124209523Y-88470714D01*
X124209523Y-87518333D02*
X124304761Y-87470714D01*
X124495238Y-87470714D01*
X124590476Y-87518333D01*
X124638095Y-87565952D01*
X124685714Y-87661190D01*
X124685714Y-87946904D01*
X124638095Y-88042142D01*
X124590476Y-88089761D01*
X124495238Y-88137380D01*
X124304761Y-88137380D01*
X124209523Y-88089761D01*
X125447619Y-87613571D02*
X125114285Y-87613571D01*
X125114285Y-88137380D02*
X125114285Y-87137380D01*
X125590476Y-87137380D01*
X139273333Y-79967142D02*
X139225714Y-80014761D01*
X139082857Y-80062380D01*
X138987619Y-80062380D01*
X138844761Y-80014761D01*
X138749523Y-79919523D01*
X138701904Y-79824285D01*
X138654285Y-79633809D01*
X138654285Y-79490952D01*
X138701904Y-79300476D01*
X138749523Y-79205238D01*
X138844761Y-79110000D01*
X138987619Y-79062380D01*
X139082857Y-79062380D01*
X139225714Y-79110000D01*
X139273333Y-79157619D01*
X140130476Y-79395714D02*
X140130476Y-80062380D01*
X139892380Y-79014761D02*
X139654285Y-79729047D01*
X140273333Y-79729047D01*
X132512380Y-77977380D02*
X131940952Y-77977380D01*
X132226666Y-77977380D02*
X132226666Y-76977380D01*
X132131428Y-77120238D01*
X132036190Y-77215476D01*
X131940952Y-77263095D01*
X133131428Y-76977380D02*
X133226666Y-76977380D01*
X133321904Y-77025000D01*
X133369523Y-77072619D01*
X133417142Y-77167857D01*
X133464761Y-77358333D01*
X133464761Y-77596428D01*
X133417142Y-77786904D01*
X133369523Y-77882142D01*
X133321904Y-77929761D01*
X133226666Y-77977380D01*
X133131428Y-77977380D01*
X133036190Y-77929761D01*
X132988571Y-77882142D01*
X132940952Y-77786904D01*
X132893333Y-77596428D01*
X132893333Y-77358333D01*
X132940952Y-77167857D01*
X132988571Y-77072619D01*
X133036190Y-77025000D01*
X133131428Y-76977380D01*
X134083809Y-76977380D02*
X134179047Y-76977380D01*
X134274285Y-77025000D01*
X134321904Y-77072619D01*
X134369523Y-77167857D01*
X134417142Y-77358333D01*
X134417142Y-77596428D01*
X134369523Y-77786904D01*
X134321904Y-77882142D01*
X134274285Y-77929761D01*
X134179047Y-77977380D01*
X134083809Y-77977380D01*
X133988571Y-77929761D01*
X133940952Y-77882142D01*
X133893333Y-77786904D01*
X133845714Y-77596428D01*
X133845714Y-77358333D01*
X133893333Y-77167857D01*
X133940952Y-77072619D01*
X133988571Y-77025000D01*
X134083809Y-76977380D01*
X134845714Y-77310714D02*
X134845714Y-77977380D01*
X134845714Y-77405952D02*
X134893333Y-77358333D01*
X134988571Y-77310714D01*
X135131428Y-77310714D01*
X135226666Y-77358333D01*
X135274285Y-77453571D01*
X135274285Y-77977380D01*
X136083809Y-77453571D02*
X135750476Y-77453571D01*
X135750476Y-77977380D02*
X135750476Y-76977380D01*
X136226666Y-76977380D01*
X153578333Y-72167142D02*
X153530714Y-72214761D01*
X153387857Y-72262380D01*
X153292619Y-72262380D01*
X153149761Y-72214761D01*
X153054523Y-72119523D01*
X153006904Y-72024285D01*
X152959285Y-71833809D01*
X152959285Y-71690952D01*
X153006904Y-71500476D01*
X153054523Y-71405238D01*
X153149761Y-71310000D01*
X153292619Y-71262380D01*
X153387857Y-71262380D01*
X153530714Y-71310000D01*
X153578333Y-71357619D01*
X154483095Y-71262380D02*
X154006904Y-71262380D01*
X153959285Y-71738571D01*
X154006904Y-71690952D01*
X154102142Y-71643333D01*
X154340238Y-71643333D01*
X154435476Y-71690952D01*
X154483095Y-71738571D01*
X154530714Y-71833809D01*
X154530714Y-72071904D01*
X154483095Y-72167142D01*
X154435476Y-72214761D01*
X154340238Y-72262380D01*
X154102142Y-72262380D01*
X154006904Y-72214761D01*
X153959285Y-72167142D01*
X158007380Y-79461428D02*
X158007380Y-80032857D01*
X158007380Y-79747142D02*
X157007380Y-79747142D01*
X157150238Y-79842380D01*
X157245476Y-79937619D01*
X157293095Y-80032857D01*
X157340714Y-79032857D02*
X158340714Y-79032857D01*
X157864523Y-78556666D02*
X157959761Y-78509047D01*
X158007380Y-78413809D01*
X157864523Y-79032857D02*
X157959761Y-78985238D01*
X158007380Y-78890000D01*
X158007380Y-78699523D01*
X157959761Y-78604285D01*
X157864523Y-78556666D01*
X157340714Y-78556666D01*
X157483571Y-77651904D02*
X157483571Y-77985238D01*
X158007380Y-77985238D02*
X157007380Y-77985238D01*
X157007380Y-77509047D01*
X156959761Y-76413809D02*
X158245476Y-77270952D01*
X157007380Y-75604285D02*
X157007380Y-76080476D01*
X157483571Y-76128095D01*
X157435952Y-76080476D01*
X157388333Y-75985238D01*
X157388333Y-75747142D01*
X157435952Y-75651904D01*
X157483571Y-75604285D01*
X157578809Y-75556666D01*
X157816904Y-75556666D01*
X157912142Y-75604285D01*
X157959761Y-75651904D01*
X158007380Y-75747142D01*
X158007380Y-75985238D01*
X157959761Y-76080476D01*
X157912142Y-76128095D01*
X157007380Y-74937619D02*
X157007380Y-74842380D01*
X157055000Y-74747142D01*
X157102619Y-74699523D01*
X157197857Y-74651904D01*
X157388333Y-74604285D01*
X157626428Y-74604285D01*
X157816904Y-74651904D01*
X157912142Y-74699523D01*
X157959761Y-74747142D01*
X158007380Y-74842380D01*
X158007380Y-74937619D01*
X157959761Y-75032857D01*
X157912142Y-75080476D01*
X157816904Y-75128095D01*
X157626428Y-75175714D01*
X157388333Y-75175714D01*
X157197857Y-75128095D01*
X157102619Y-75080476D01*
X157055000Y-75032857D01*
X157007380Y-74937619D01*
X157007380Y-74318571D02*
X158007380Y-73985238D01*
X157007380Y-73651904D01*
X159293333Y-114712142D02*
X159245714Y-114759761D01*
X159102857Y-114807380D01*
X159007619Y-114807380D01*
X158864761Y-114759761D01*
X158769523Y-114664523D01*
X158721904Y-114569285D01*
X158674285Y-114378809D01*
X158674285Y-114235952D01*
X158721904Y-114045476D01*
X158769523Y-113950238D01*
X158864761Y-113855000D01*
X159007619Y-113807380D01*
X159102857Y-113807380D01*
X159245714Y-113855000D01*
X159293333Y-113902619D01*
X160150476Y-113807380D02*
X159960000Y-113807380D01*
X159864761Y-113855000D01*
X159817142Y-113902619D01*
X159721904Y-114045476D01*
X159674285Y-114235952D01*
X159674285Y-114616904D01*
X159721904Y-114712142D01*
X159769523Y-114759761D01*
X159864761Y-114807380D01*
X160055238Y-114807380D01*
X160150476Y-114759761D01*
X160198095Y-114712142D01*
X160245714Y-114616904D01*
X160245714Y-114378809D01*
X160198095Y-114283571D01*
X160150476Y-114235952D01*
X160055238Y-114188333D01*
X159864761Y-114188333D01*
X159769523Y-114235952D01*
X159721904Y-114283571D01*
X159674285Y-114378809D01*
X158007380Y-112481428D02*
X158007380Y-113052857D01*
X158007380Y-112767142D02*
X157007380Y-112767142D01*
X157150238Y-112862380D01*
X157245476Y-112957619D01*
X157293095Y-113052857D01*
X157340714Y-112052857D02*
X158340714Y-112052857D01*
X157864523Y-111576666D02*
X157959761Y-111529047D01*
X158007380Y-111433809D01*
X157864523Y-112052857D02*
X157959761Y-112005238D01*
X158007380Y-111910000D01*
X158007380Y-111719523D01*
X157959761Y-111624285D01*
X157864523Y-111576666D01*
X157340714Y-111576666D01*
X157483571Y-110671904D02*
X157483571Y-111005238D01*
X158007380Y-111005238D02*
X157007380Y-111005238D01*
X157007380Y-110529047D01*
X156959761Y-109433809D02*
X158245476Y-110290952D01*
X157007380Y-108624285D02*
X157007380Y-109100476D01*
X157483571Y-109148095D01*
X157435952Y-109100476D01*
X157388333Y-109005238D01*
X157388333Y-108767142D01*
X157435952Y-108671904D01*
X157483571Y-108624285D01*
X157578809Y-108576666D01*
X157816904Y-108576666D01*
X157912142Y-108624285D01*
X157959761Y-108671904D01*
X158007380Y-108767142D01*
X158007380Y-109005238D01*
X157959761Y-109100476D01*
X157912142Y-109148095D01*
X157007380Y-107957619D02*
X157007380Y-107862380D01*
X157055000Y-107767142D01*
X157102619Y-107719523D01*
X157197857Y-107671904D01*
X157388333Y-107624285D01*
X157626428Y-107624285D01*
X157816904Y-107671904D01*
X157912142Y-107719523D01*
X157959761Y-107767142D01*
X158007380Y-107862380D01*
X158007380Y-107957619D01*
X157959761Y-108052857D01*
X157912142Y-108100476D01*
X157816904Y-108148095D01*
X157626428Y-108195714D01*
X157388333Y-108195714D01*
X157197857Y-108148095D01*
X157102619Y-108100476D01*
X157055000Y-108052857D01*
X157007380Y-107957619D01*
X157007380Y-107338571D02*
X158007380Y-107005238D01*
X157007380Y-106671904D01*
X145958333Y-72167142D02*
X145910714Y-72214761D01*
X145767857Y-72262380D01*
X145672619Y-72262380D01*
X145529761Y-72214761D01*
X145434523Y-72119523D01*
X145386904Y-72024285D01*
X145339285Y-71833809D01*
X145339285Y-71690952D01*
X145386904Y-71500476D01*
X145434523Y-71405238D01*
X145529761Y-71310000D01*
X145672619Y-71262380D01*
X145767857Y-71262380D01*
X145910714Y-71310000D01*
X145958333Y-71357619D01*
X146291666Y-71262380D02*
X146958333Y-71262380D01*
X146529761Y-72262380D01*
X150387380Y-79461428D02*
X150387380Y-80032857D01*
X150387380Y-79747142D02*
X149387380Y-79747142D01*
X149530238Y-79842380D01*
X149625476Y-79937619D01*
X149673095Y-80032857D01*
X149720714Y-79032857D02*
X150720714Y-79032857D01*
X150244523Y-78556666D02*
X150339761Y-78509047D01*
X150387380Y-78413809D01*
X150244523Y-79032857D02*
X150339761Y-78985238D01*
X150387380Y-78890000D01*
X150387380Y-78699523D01*
X150339761Y-78604285D01*
X150244523Y-78556666D01*
X149720714Y-78556666D01*
X149863571Y-77651904D02*
X149863571Y-77985238D01*
X150387380Y-77985238D02*
X149387380Y-77985238D01*
X149387380Y-77509047D01*
X149339761Y-76413809D02*
X150625476Y-77270952D01*
X149387380Y-75604285D02*
X149387380Y-76080476D01*
X149863571Y-76128095D01*
X149815952Y-76080476D01*
X149768333Y-75985238D01*
X149768333Y-75747142D01*
X149815952Y-75651904D01*
X149863571Y-75604285D01*
X149958809Y-75556666D01*
X150196904Y-75556666D01*
X150292142Y-75604285D01*
X150339761Y-75651904D01*
X150387380Y-75747142D01*
X150387380Y-75985238D01*
X150339761Y-76080476D01*
X150292142Y-76128095D01*
X149387380Y-74937619D02*
X149387380Y-74842380D01*
X149435000Y-74747142D01*
X149482619Y-74699523D01*
X149577857Y-74651904D01*
X149768333Y-74604285D01*
X150006428Y-74604285D01*
X150196904Y-74651904D01*
X150292142Y-74699523D01*
X150339761Y-74747142D01*
X150387380Y-74842380D01*
X150387380Y-74937619D01*
X150339761Y-75032857D01*
X150292142Y-75080476D01*
X150196904Y-75128095D01*
X150006428Y-75175714D01*
X149768333Y-75175714D01*
X149577857Y-75128095D01*
X149482619Y-75080476D01*
X149435000Y-75032857D01*
X149387380Y-74937619D01*
X149387380Y-74318571D02*
X150387380Y-73985238D01*
X149387380Y-73651904D01*
X144053333Y-114712142D02*
X144005714Y-114759761D01*
X143862857Y-114807380D01*
X143767619Y-114807380D01*
X143624761Y-114759761D01*
X143529523Y-114664523D01*
X143481904Y-114569285D01*
X143434285Y-114378809D01*
X143434285Y-114235952D01*
X143481904Y-114045476D01*
X143529523Y-113950238D01*
X143624761Y-113855000D01*
X143767619Y-113807380D01*
X143862857Y-113807380D01*
X144005714Y-113855000D01*
X144053333Y-113902619D01*
X144624761Y-114235952D02*
X144529523Y-114188333D01*
X144481904Y-114140714D01*
X144434285Y-114045476D01*
X144434285Y-113997857D01*
X144481904Y-113902619D01*
X144529523Y-113855000D01*
X144624761Y-113807380D01*
X144815238Y-113807380D01*
X144910476Y-113855000D01*
X144958095Y-113902619D01*
X145005714Y-113997857D01*
X145005714Y-114045476D01*
X144958095Y-114140714D01*
X144910476Y-114188333D01*
X144815238Y-114235952D01*
X144624761Y-114235952D01*
X144529523Y-114283571D01*
X144481904Y-114331190D01*
X144434285Y-114426428D01*
X144434285Y-114616904D01*
X144481904Y-114712142D01*
X144529523Y-114759761D01*
X144624761Y-114807380D01*
X144815238Y-114807380D01*
X144910476Y-114759761D01*
X144958095Y-114712142D01*
X145005714Y-114616904D01*
X145005714Y-114426428D01*
X144958095Y-114331190D01*
X144910476Y-114283571D01*
X144815238Y-114235952D01*
X150387380Y-112481428D02*
X150387380Y-113052857D01*
X150387380Y-112767142D02*
X149387380Y-112767142D01*
X149530238Y-112862380D01*
X149625476Y-112957619D01*
X149673095Y-113052857D01*
X149720714Y-112052857D02*
X150720714Y-112052857D01*
X150244523Y-111576666D02*
X150339761Y-111529047D01*
X150387380Y-111433809D01*
X150244523Y-112052857D02*
X150339761Y-112005238D01*
X150387380Y-111910000D01*
X150387380Y-111719523D01*
X150339761Y-111624285D01*
X150244523Y-111576666D01*
X149720714Y-111576666D01*
X149863571Y-110671904D02*
X149863571Y-111005238D01*
X150387380Y-111005238D02*
X149387380Y-111005238D01*
X149387380Y-110529047D01*
X149339761Y-109433809D02*
X150625476Y-110290952D01*
X149387380Y-108624285D02*
X149387380Y-109100476D01*
X149863571Y-109148095D01*
X149815952Y-109100476D01*
X149768333Y-109005238D01*
X149768333Y-108767142D01*
X149815952Y-108671904D01*
X149863571Y-108624285D01*
X149958809Y-108576666D01*
X150196904Y-108576666D01*
X150292142Y-108624285D01*
X150339761Y-108671904D01*
X150387380Y-108767142D01*
X150387380Y-109005238D01*
X150339761Y-109100476D01*
X150292142Y-109148095D01*
X149387380Y-107957619D02*
X149387380Y-107862380D01*
X149435000Y-107767142D01*
X149482619Y-107719523D01*
X149577857Y-107671904D01*
X149768333Y-107624285D01*
X150006428Y-107624285D01*
X150196904Y-107671904D01*
X150292142Y-107719523D01*
X150339761Y-107767142D01*
X150387380Y-107862380D01*
X150387380Y-107957619D01*
X150339761Y-108052857D01*
X150292142Y-108100476D01*
X150196904Y-108148095D01*
X150006428Y-108195714D01*
X149768333Y-108195714D01*
X149577857Y-108148095D01*
X149482619Y-108100476D01*
X149435000Y-108052857D01*
X149387380Y-107957619D01*
X149387380Y-107338571D02*
X150387380Y-107005238D01*
X149387380Y-106671904D01*
X161198333Y-72167142D02*
X161150714Y-72214761D01*
X161007857Y-72262380D01*
X160912619Y-72262380D01*
X160769761Y-72214761D01*
X160674523Y-72119523D01*
X160626904Y-72024285D01*
X160579285Y-71833809D01*
X160579285Y-71690952D01*
X160626904Y-71500476D01*
X160674523Y-71405238D01*
X160769761Y-71310000D01*
X160912619Y-71262380D01*
X161007857Y-71262380D01*
X161150714Y-71310000D01*
X161198333Y-71357619D01*
X161674523Y-72262380D02*
X161865000Y-72262380D01*
X161960238Y-72214761D01*
X162007857Y-72167142D01*
X162103095Y-72024285D01*
X162150714Y-71833809D01*
X162150714Y-71452857D01*
X162103095Y-71357619D01*
X162055476Y-71310000D01*
X161960238Y-71262380D01*
X161769761Y-71262380D01*
X161674523Y-71310000D01*
X161626904Y-71357619D01*
X161579285Y-71452857D01*
X161579285Y-71690952D01*
X161626904Y-71786190D01*
X161674523Y-71833809D01*
X161769761Y-71881428D01*
X161960238Y-71881428D01*
X162055476Y-71833809D01*
X162103095Y-71786190D01*
X162150714Y-71690952D01*
X162920952Y-79247380D02*
X162349523Y-79247380D01*
X162635238Y-79247380D02*
X162635238Y-78247380D01*
X162540000Y-78390238D01*
X162444761Y-78485476D01*
X162349523Y-78533095D01*
X163540000Y-78247380D02*
X163635238Y-78247380D01*
X163730476Y-78295000D01*
X163778095Y-78342619D01*
X163825714Y-78437857D01*
X163873333Y-78628333D01*
X163873333Y-78866428D01*
X163825714Y-79056904D01*
X163778095Y-79152142D01*
X163730476Y-79199761D01*
X163635238Y-79247380D01*
X163540000Y-79247380D01*
X163444761Y-79199761D01*
X163397142Y-79152142D01*
X163349523Y-79056904D01*
X163301904Y-78866428D01*
X163301904Y-78628333D01*
X163349523Y-78437857D01*
X163397142Y-78342619D01*
X163444761Y-78295000D01*
X163540000Y-78247380D01*
X164492380Y-78247380D02*
X164587619Y-78247380D01*
X164682857Y-78295000D01*
X164730476Y-78342619D01*
X164778095Y-78437857D01*
X164825714Y-78628333D01*
X164825714Y-78866428D01*
X164778095Y-79056904D01*
X164730476Y-79152142D01*
X164682857Y-79199761D01*
X164587619Y-79247380D01*
X164492380Y-79247380D01*
X164397142Y-79199761D01*
X164349523Y-79152142D01*
X164301904Y-79056904D01*
X164254285Y-78866428D01*
X164254285Y-78628333D01*
X164301904Y-78437857D01*
X164349523Y-78342619D01*
X164397142Y-78295000D01*
X164492380Y-78247380D01*
X165254285Y-78580714D02*
X165254285Y-79580714D01*
X165730476Y-79104523D02*
X165778095Y-79199761D01*
X165873333Y-79247380D01*
X165254285Y-79104523D02*
X165301904Y-79199761D01*
X165397142Y-79247380D01*
X165587619Y-79247380D01*
X165682857Y-79199761D01*
X165730476Y-79104523D01*
X165730476Y-78580714D01*
X166635238Y-78723571D02*
X166301904Y-78723571D01*
X166301904Y-79247380D02*
X166301904Y-78247380D01*
X166778095Y-78247380D01*
X143481904Y-105282380D02*
X143481904Y-104282380D01*
X143720000Y-104282380D01*
X143862857Y-104330000D01*
X143958095Y-104425238D01*
X144005714Y-104520476D01*
X144053333Y-104710952D01*
X144053333Y-104853809D01*
X144005714Y-105044285D01*
X143958095Y-105139523D01*
X143862857Y-105234761D01*
X143720000Y-105282380D01*
X143481904Y-105282380D01*
X145005714Y-105282380D02*
X144434285Y-105282380D01*
X144720000Y-105282380D02*
X144720000Y-104282380D01*
X144624761Y-104425238D01*
X144529523Y-104520476D01*
X144434285Y-104568095D01*
X145156666Y-101742380D02*
X145156666Y-102456666D01*
X145109047Y-102599523D01*
X145013809Y-102694761D01*
X144870952Y-102742380D01*
X144775714Y-102742380D01*
X146156666Y-102742380D02*
X145585238Y-102742380D01*
X145870952Y-102742380D02*
X145870952Y-101742380D01*
X145775714Y-101885238D01*
X145680476Y-101980476D01*
X145585238Y-102028095D01*
X145156666Y-99202380D02*
X145156666Y-99916666D01*
X145109047Y-100059523D01*
X145013809Y-100154761D01*
X144870952Y-100202380D01*
X144775714Y-100202380D01*
X145585238Y-99297619D02*
X145632857Y-99250000D01*
X145728095Y-99202380D01*
X145966190Y-99202380D01*
X146061428Y-99250000D01*
X146109047Y-99297619D01*
X146156666Y-99392857D01*
X146156666Y-99488095D01*
X146109047Y-99630952D01*
X145537619Y-100202380D01*
X146156666Y-100202380D01*
X130551666Y-68722380D02*
X130551666Y-69436666D01*
X130504047Y-69579523D01*
X130408809Y-69674761D01*
X130265952Y-69722380D01*
X130170714Y-69722380D01*
X130932619Y-68722380D02*
X131551666Y-68722380D01*
X131218333Y-69103333D01*
X131361190Y-69103333D01*
X131456428Y-69150952D01*
X131504047Y-69198571D01*
X131551666Y-69293809D01*
X131551666Y-69531904D01*
X131504047Y-69627142D01*
X131456428Y-69674761D01*
X131361190Y-69722380D01*
X131075476Y-69722380D01*
X130980238Y-69674761D01*
X130932619Y-69627142D01*
X162301666Y-80352700D02*
X162301666Y-81066986D01*
X162254047Y-81209843D01*
X162158809Y-81305081D01*
X162015952Y-81352700D01*
X161920714Y-81352700D01*
X163206428Y-80686034D02*
X163206428Y-81352700D01*
X162968333Y-80305081D02*
X162730238Y-81019367D01*
X163349285Y-81019367D01*
X99436666Y-73167380D02*
X99436666Y-73881666D01*
X99389047Y-74024523D01*
X99293809Y-74119761D01*
X99150952Y-74167380D01*
X99055714Y-74167380D01*
X100389047Y-73167380D02*
X99912857Y-73167380D01*
X99865238Y-73643571D01*
X99912857Y-73595952D01*
X100008095Y-73548333D01*
X100246190Y-73548333D01*
X100341428Y-73595952D01*
X100389047Y-73643571D01*
X100436666Y-73738809D01*
X100436666Y-73976904D01*
X100389047Y-74072142D01*
X100341428Y-74119761D01*
X100246190Y-74167380D01*
X100008095Y-74167380D01*
X99912857Y-74119761D01*
X99865238Y-74072142D01*
X144232380Y-87383333D02*
X144946666Y-87383333D01*
X145089523Y-87430952D01*
X145184761Y-87526190D01*
X145232380Y-87669047D01*
X145232380Y-87764285D01*
X144232380Y-86478571D02*
X144232380Y-86669047D01*
X144280000Y-86764285D01*
X144327619Y-86811904D01*
X144470476Y-86907142D01*
X144660952Y-86954761D01*
X145041904Y-86954761D01*
X145137142Y-86907142D01*
X145184761Y-86859523D01*
X145232380Y-86764285D01*
X145232380Y-86573809D01*
X145184761Y-86478571D01*
X145137142Y-86430952D01*
X145041904Y-86383333D01*
X144803809Y-86383333D01*
X144708571Y-86430952D01*
X144660952Y-86478571D01*
X144613333Y-86573809D01*
X144613333Y-86764285D01*
X144660952Y-86859523D01*
X144708571Y-86907142D01*
X144803809Y-86954761D01*
X116581666Y-99202380D02*
X116581666Y-99916666D01*
X116534047Y-100059523D01*
X116438809Y-100154761D01*
X116295952Y-100202380D01*
X116200714Y-100202380D01*
X117200714Y-99630952D02*
X117105476Y-99583333D01*
X117057857Y-99535714D01*
X117010238Y-99440476D01*
X117010238Y-99392857D01*
X117057857Y-99297619D01*
X117105476Y-99250000D01*
X117200714Y-99202380D01*
X117391190Y-99202380D01*
X117486428Y-99250000D01*
X117534047Y-99297619D01*
X117581666Y-99392857D01*
X117581666Y-99440476D01*
X117534047Y-99535714D01*
X117486428Y-99583333D01*
X117391190Y-99630952D01*
X117200714Y-99630952D01*
X117105476Y-99678571D01*
X117057857Y-99726190D01*
X117010238Y-99821428D01*
X117010238Y-100011904D01*
X117057857Y-100107142D01*
X117105476Y-100154761D01*
X117200714Y-100202380D01*
X117391190Y-100202380D01*
X117486428Y-100154761D01*
X117534047Y-100107142D01*
X117581666Y-100011904D01*
X117581666Y-99821428D01*
X117534047Y-99726190D01*
X117486428Y-99678571D01*
X117391190Y-99630952D01*
X162301666Y-89062380D02*
X162301666Y-89776666D01*
X162254047Y-89919523D01*
X162158809Y-90014761D01*
X162015952Y-90062380D01*
X161920714Y-90062380D01*
X162825476Y-90062380D02*
X163015952Y-90062380D01*
X163111190Y-90014761D01*
X163158809Y-89967142D01*
X163254047Y-89824285D01*
X163301666Y-89633809D01*
X163301666Y-89252857D01*
X163254047Y-89157619D01*
X163206428Y-89110000D01*
X163111190Y-89062380D01*
X162920714Y-89062380D01*
X162825476Y-89110000D01*
X162777857Y-89157619D01*
X162730238Y-89252857D01*
X162730238Y-89490952D01*
X162777857Y-89586190D01*
X162825476Y-89633809D01*
X162920714Y-89681428D01*
X163111190Y-89681428D01*
X163206428Y-89633809D01*
X163254047Y-89586190D01*
X163301666Y-89490952D01*
X127543333Y-74802380D02*
X127210000Y-74326190D01*
X126971904Y-74802380D02*
X126971904Y-73802380D01*
X127352857Y-73802380D01*
X127448095Y-73850000D01*
X127495714Y-73897619D01*
X127543333Y-73992857D01*
X127543333Y-74135714D01*
X127495714Y-74230952D01*
X127448095Y-74278571D01*
X127352857Y-74326190D01*
X126971904Y-74326190D01*
X128495714Y-74802380D02*
X127924285Y-74802380D01*
X128210000Y-74802380D02*
X128210000Y-73802380D01*
X128114761Y-73945238D01*
X128019523Y-74040476D01*
X127924285Y-74088095D01*
X119494761Y-74802380D02*
X118923333Y-74802380D01*
X119209047Y-74802380D02*
X119209047Y-73802380D01*
X119113809Y-73945238D01*
X119018571Y-74040476D01*
X118923333Y-74088095D01*
X120399523Y-73802380D02*
X119923333Y-73802380D01*
X119875714Y-74278571D01*
X119923333Y-74230952D01*
X120018571Y-74183333D01*
X120256666Y-74183333D01*
X120351904Y-74230952D01*
X120399523Y-74278571D01*
X120447142Y-74373809D01*
X120447142Y-74611904D01*
X120399523Y-74707142D01*
X120351904Y-74754761D01*
X120256666Y-74802380D01*
X120018571Y-74802380D01*
X119923333Y-74754761D01*
X119875714Y-74707142D01*
X120875714Y-74802380D02*
X120875714Y-73802380D01*
X120970952Y-74421428D02*
X121256666Y-74802380D01*
X121256666Y-74135714D02*
X120875714Y-74516666D01*
X141513333Y-112902380D02*
X141180000Y-112426190D01*
X140941904Y-112902380D02*
X140941904Y-111902380D01*
X141322857Y-111902380D01*
X141418095Y-111950000D01*
X141465714Y-111997619D01*
X141513333Y-112092857D01*
X141513333Y-112235714D01*
X141465714Y-112330952D01*
X141418095Y-112378571D01*
X141322857Y-112426190D01*
X140941904Y-112426190D01*
X141894285Y-111997619D02*
X141941904Y-111950000D01*
X142037142Y-111902380D01*
X142275238Y-111902380D01*
X142370476Y-111950000D01*
X142418095Y-111997619D01*
X142465714Y-112092857D01*
X142465714Y-112188095D01*
X142418095Y-112330952D01*
X141846666Y-112902380D01*
X142465714Y-112902380D01*
X133464761Y-112902380D02*
X132893333Y-112902380D01*
X133179047Y-112902380D02*
X133179047Y-111902380D01*
X133083809Y-112045238D01*
X132988571Y-112140476D01*
X132893333Y-112188095D01*
X133893333Y-112902380D02*
X133893333Y-111902380D01*
X133988571Y-112521428D02*
X134274285Y-112902380D01*
X134274285Y-112235714D02*
X133893333Y-112616666D01*
X135179047Y-111902380D02*
X134702857Y-111902380D01*
X134655238Y-112378571D01*
X134702857Y-112330952D01*
X134798095Y-112283333D01*
X135036190Y-112283333D01*
X135131428Y-112330952D01*
X135179047Y-112378571D01*
X135226666Y-112473809D01*
X135226666Y-112711904D01*
X135179047Y-112807142D01*
X135131428Y-112854761D01*
X135036190Y-112902380D01*
X134798095Y-112902380D01*
X134702857Y-112854761D01*
X134655238Y-112807142D01*
X127543333Y-77342380D02*
X127210000Y-76866190D01*
X126971904Y-77342380D02*
X126971904Y-76342380D01*
X127352857Y-76342380D01*
X127448095Y-76390000D01*
X127495714Y-76437619D01*
X127543333Y-76532857D01*
X127543333Y-76675714D01*
X127495714Y-76770952D01*
X127448095Y-76818571D01*
X127352857Y-76866190D01*
X126971904Y-76866190D01*
X127876666Y-76342380D02*
X128495714Y-76342380D01*
X128162380Y-76723333D01*
X128305238Y-76723333D01*
X128400476Y-76770952D01*
X128448095Y-76818571D01*
X128495714Y-76913809D01*
X128495714Y-77151904D01*
X128448095Y-77247142D01*
X128400476Y-77294761D01*
X128305238Y-77342380D01*
X128019523Y-77342380D01*
X127924285Y-77294761D01*
X127876666Y-77247142D01*
X119494761Y-77342380D02*
X118923333Y-77342380D01*
X119209047Y-77342380D02*
X119209047Y-76342380D01*
X119113809Y-76485238D01*
X119018571Y-76580476D01*
X118923333Y-76628095D01*
X120399523Y-76342380D02*
X119923333Y-76342380D01*
X119875714Y-76818571D01*
X119923333Y-76770952D01*
X120018571Y-76723333D01*
X120256666Y-76723333D01*
X120351904Y-76770952D01*
X120399523Y-76818571D01*
X120447142Y-76913809D01*
X120447142Y-77151904D01*
X120399523Y-77247142D01*
X120351904Y-77294761D01*
X120256666Y-77342380D01*
X120018571Y-77342380D01*
X119923333Y-77294761D01*
X119875714Y-77247142D01*
X120875714Y-77342380D02*
X120875714Y-76342380D01*
X120970952Y-76961428D02*
X121256666Y-77342380D01*
X121256666Y-76675714D02*
X120875714Y-77056666D01*
X127543333Y-79982380D02*
X127210000Y-79506190D01*
X126971904Y-79982380D02*
X126971904Y-78982380D01*
X127352857Y-78982380D01*
X127448095Y-79030000D01*
X127495714Y-79077619D01*
X127543333Y-79172857D01*
X127543333Y-79315714D01*
X127495714Y-79410952D01*
X127448095Y-79458571D01*
X127352857Y-79506190D01*
X126971904Y-79506190D01*
X128400476Y-79315714D02*
X128400476Y-79982380D01*
X128162380Y-78934761D02*
X127924285Y-79649047D01*
X128543333Y-79649047D01*
X119494761Y-79882380D02*
X118923333Y-79882380D01*
X119209047Y-79882380D02*
X119209047Y-78882380D01*
X119113809Y-79025238D01*
X119018571Y-79120476D01*
X118923333Y-79168095D01*
X120399523Y-78882380D02*
X119923333Y-78882380D01*
X119875714Y-79358571D01*
X119923333Y-79310952D01*
X120018571Y-79263333D01*
X120256666Y-79263333D01*
X120351904Y-79310952D01*
X120399523Y-79358571D01*
X120447142Y-79453809D01*
X120447142Y-79691904D01*
X120399523Y-79787142D01*
X120351904Y-79834761D01*
X120256666Y-79882380D01*
X120018571Y-79882380D01*
X119923333Y-79834761D01*
X119875714Y-79787142D01*
X120875714Y-79882380D02*
X120875714Y-78882380D01*
X120970952Y-79501428D02*
X121256666Y-79882380D01*
X121256666Y-79215714D02*
X120875714Y-79596666D01*
X116788095Y-84597380D02*
X116788095Y-85406904D01*
X116835714Y-85502142D01*
X116883333Y-85549761D01*
X116978571Y-85597380D01*
X117169047Y-85597380D01*
X117264285Y-85549761D01*
X117311904Y-85502142D01*
X117359523Y-85406904D01*
X117359523Y-84597380D01*
X118359523Y-85597380D02*
X117788095Y-85597380D01*
X118073809Y-85597380D02*
X118073809Y-84597380D01*
X117978571Y-84740238D01*
X117883333Y-84835476D01*
X117788095Y-84883095D01*
X116501240Y-93820476D02*
X116501240Y-94391904D01*
X116501240Y-94106190D02*
X115501240Y-94106190D01*
X115644098Y-94201428D01*
X115739336Y-94296666D01*
X115786955Y-94391904D01*
X115596479Y-93439523D02*
X115548860Y-93391904D01*
X115501240Y-93296666D01*
X115501240Y-93058571D01*
X115548860Y-92963333D01*
X115596479Y-92915714D01*
X115691717Y-92868095D01*
X115786955Y-92868095D01*
X115929812Y-92915714D01*
X116501240Y-93487142D01*
X116501240Y-92868095D01*
X116501240Y-92439523D02*
X115501240Y-92439523D01*
X116215526Y-92106190D01*
X115501240Y-91772857D01*
X116501240Y-91772857D01*
X116501240Y-91296666D02*
X115501240Y-91296666D01*
X115977431Y-91296666D02*
X115977431Y-90725238D01*
X116501240Y-90725238D02*
X115501240Y-90725238D01*
X115834574Y-90344285D02*
X115834574Y-89820476D01*
X116501240Y-90344285D01*
X116501240Y-89820476D01*
X150868095Y-81522380D02*
X150868095Y-82331904D01*
X150915714Y-82427142D01*
X150963333Y-82474761D01*
X151058571Y-82522380D01*
X151249047Y-82522380D01*
X151344285Y-82474761D01*
X151391904Y-82427142D01*
X151439523Y-82331904D01*
X151439523Y-81522380D01*
X151820476Y-81522380D02*
X152439523Y-81522380D01*
X152106190Y-81903333D01*
X152249047Y-81903333D01*
X152344285Y-81950952D01*
X152391904Y-81998571D01*
X152439523Y-82093809D01*
X152439523Y-82331904D01*
X152391904Y-82427142D01*
X152344285Y-82474761D01*
X152249047Y-82522380D01*
X151963333Y-82522380D01*
X151868095Y-82474761D01*
X151820476Y-82427142D01*
X152292380Y-96590476D02*
X151292380Y-96590476D01*
X152006666Y-96257142D01*
X151292380Y-95923809D01*
X152292380Y-95923809D01*
X152006666Y-95495238D02*
X152006666Y-95019047D01*
X152292380Y-95590476D02*
X151292380Y-95257142D01*
X152292380Y-94923809D01*
X151292380Y-94685714D02*
X152292380Y-94019047D01*
X151292380Y-94019047D02*
X152292380Y-94685714D01*
X151387619Y-93685714D02*
X151340000Y-93638095D01*
X151292380Y-93542857D01*
X151292380Y-93304761D01*
X151340000Y-93209523D01*
X151387619Y-93161904D01*
X151482857Y-93114285D01*
X151578095Y-93114285D01*
X151720952Y-93161904D01*
X152292380Y-93733333D01*
X152292380Y-93114285D01*
X151292380Y-92780952D02*
X151292380Y-92161904D01*
X151673333Y-92495238D01*
X151673333Y-92352380D01*
X151720952Y-92257142D01*
X151768571Y-92209523D01*
X151863809Y-92161904D01*
X152101904Y-92161904D01*
X152197142Y-92209523D01*
X152244761Y-92257142D01*
X152292380Y-92352380D01*
X152292380Y-92638095D01*
X152244761Y-92733333D01*
X152197142Y-92780952D01*
X151387619Y-91780952D02*
X151340000Y-91733333D01*
X151292380Y-91638095D01*
X151292380Y-91400000D01*
X151340000Y-91304761D01*
X151387619Y-91257142D01*
X151482857Y-91209523D01*
X151578095Y-91209523D01*
X151720952Y-91257142D01*
X152292380Y-91828571D01*
X152292380Y-91209523D01*
X152292380Y-90780952D02*
X151292380Y-90780952D01*
X152292380Y-90209523D01*
X151292380Y-90209523D01*
X133298095Y-81422380D02*
X133298095Y-82231904D01*
X133345714Y-82327142D01*
X133393333Y-82374761D01*
X133488571Y-82422380D01*
X133679047Y-82422380D01*
X133774285Y-82374761D01*
X133821904Y-82327142D01*
X133869523Y-82231904D01*
X133869523Y-81422380D01*
X134298095Y-81517619D02*
X134345714Y-81470000D01*
X134440952Y-81422380D01*
X134679047Y-81422380D01*
X134774285Y-81470000D01*
X134821904Y-81517619D01*
X134869523Y-81612857D01*
X134869523Y-81708095D01*
X134821904Y-81850952D01*
X134250476Y-82422380D01*
X134869523Y-82422380D01*
X134226666Y-102416190D02*
X134226666Y-101940000D01*
X134512380Y-102511428D02*
X133512380Y-102178095D01*
X134512380Y-101844761D01*
X133512380Y-101654285D02*
X133512380Y-101082857D01*
X134512380Y-101368571D02*
X133512380Y-101368571D01*
X133845714Y-100892380D02*
X133845714Y-100511428D01*
X133512380Y-100749523D02*
X134369523Y-100749523D01*
X134464761Y-100701904D01*
X134512380Y-100606666D01*
X134512380Y-100511428D01*
X134512380Y-100178095D02*
X133845714Y-100178095D01*
X133512380Y-100178095D02*
X133560000Y-100225714D01*
X133607619Y-100178095D01*
X133560000Y-100130476D01*
X133512380Y-100178095D01*
X133607619Y-100178095D01*
X133845714Y-99701904D02*
X134512380Y-99701904D01*
X133940952Y-99701904D02*
X133893333Y-99654285D01*
X133845714Y-99559047D01*
X133845714Y-99416190D01*
X133893333Y-99320952D01*
X133988571Y-99273333D01*
X134512380Y-99273333D01*
X133845714Y-98892380D02*
X134512380Y-98654285D01*
X133845714Y-98416190D02*
X134512380Y-98654285D01*
X134750476Y-98749523D01*
X134798095Y-98797142D01*
X134845714Y-98892380D01*
X133607619Y-98082857D02*
X133560000Y-98035238D01*
X133512380Y-97940000D01*
X133512380Y-97701904D01*
X133560000Y-97606666D01*
X133607619Y-97559047D01*
X133702857Y-97511428D01*
X133798095Y-97511428D01*
X133940952Y-97559047D01*
X134512380Y-98130476D01*
X134512380Y-97511428D01*
X133512380Y-97178095D02*
X133512380Y-96559047D01*
X133893333Y-96892380D01*
X133893333Y-96749523D01*
X133940952Y-96654285D01*
X133988571Y-96606666D01*
X134083809Y-96559047D01*
X134321904Y-96559047D01*
X134417142Y-96606666D01*
X134464761Y-96654285D01*
X134512380Y-96749523D01*
X134512380Y-97035238D01*
X134464761Y-97130476D01*
X134417142Y-97178095D01*
X134512380Y-95606666D02*
X134512380Y-96178095D01*
X134512380Y-95892380D02*
X133512380Y-95892380D01*
X133655238Y-95987619D01*
X133750476Y-96082857D01*
X133798095Y-96178095D01*
X133512380Y-95273333D02*
X133512380Y-94654285D01*
X133893333Y-94987619D01*
X133893333Y-94844761D01*
X133940952Y-94749523D01*
X133988571Y-94701904D01*
X134083809Y-94654285D01*
X134321904Y-94654285D01*
X134417142Y-94701904D01*
X134464761Y-94749523D01*
X134512380Y-94844761D01*
X134512380Y-95130476D01*
X134464761Y-95225714D01*
X134417142Y-95273333D01*
X134131428Y-94225714D02*
X134131428Y-93463809D01*
X133607619Y-93035238D02*
X133560000Y-92987619D01*
X133512380Y-92892380D01*
X133512380Y-92654285D01*
X133560000Y-92559047D01*
X133607619Y-92511428D01*
X133702857Y-92463809D01*
X133798095Y-92463809D01*
X133940952Y-92511428D01*
X134512380Y-93082857D01*
X134512380Y-92463809D01*
X133512380Y-91844761D02*
X133512380Y-91749523D01*
X133560000Y-91654285D01*
X133607619Y-91606666D01*
X133702857Y-91559047D01*
X133893333Y-91511428D01*
X134131428Y-91511428D01*
X134321904Y-91559047D01*
X134417142Y-91606666D01*
X134464761Y-91654285D01*
X134512380Y-91749523D01*
X134512380Y-91844761D01*
X134464761Y-91940000D01*
X134417142Y-91987619D01*
X134321904Y-92035238D01*
X134131428Y-92082857D01*
X133893333Y-92082857D01*
X133702857Y-92035238D01*
X133607619Y-91987619D01*
X133560000Y-91940000D01*
X133512380Y-91844761D01*
X134512380Y-91082857D02*
X133512380Y-91082857D01*
X133512380Y-90701904D01*
X133560000Y-90606666D01*
X133607619Y-90559047D01*
X133702857Y-90511428D01*
X133845714Y-90511428D01*
X133940952Y-90559047D01*
X133988571Y-90606666D01*
X134036190Y-90701904D01*
X134036190Y-91082857D01*
X133512380Y-90082857D02*
X134321904Y-90082857D01*
X134417142Y-90035238D01*
X134464761Y-89987619D01*
X134512380Y-89892380D01*
X134512380Y-89701904D01*
X134464761Y-89606666D01*
X134417142Y-89559047D01*
X134321904Y-89511428D01*
X133512380Y-89511428D01*
X122763333Y-71807142D02*
X122715714Y-71854761D01*
X122572857Y-71902380D01*
X122477619Y-71902380D01*
X122334761Y-71854761D01*
X122239523Y-71759523D01*
X122191904Y-71664285D01*
X122144285Y-71473809D01*
X122144285Y-71330952D01*
X122191904Y-71140476D01*
X122239523Y-71045238D01*
X122334761Y-70950000D01*
X122477619Y-70902380D01*
X122572857Y-70902380D01*
X122715714Y-70950000D01*
X122763333Y-70997619D01*
X123715714Y-71902380D02*
X123144285Y-71902380D01*
X123430000Y-71902380D02*
X123430000Y-70902380D01*
X123334761Y-71045238D01*
X123239523Y-71140476D01*
X123144285Y-71188095D01*
X116145238Y-69690714D02*
X116145238Y-70357380D01*
X115907142Y-69309761D02*
X115669047Y-70024047D01*
X116288095Y-70024047D01*
X116716666Y-70309761D02*
X116716666Y-70357380D01*
X116669047Y-70452619D01*
X116621428Y-70500238D01*
X117050000Y-69357380D02*
X117716666Y-69357380D01*
X117288095Y-70357380D01*
X118097619Y-69690714D02*
X118097619Y-70357380D01*
X118097619Y-69785952D02*
X118145238Y-69738333D01*
X118240476Y-69690714D01*
X118383333Y-69690714D01*
X118478571Y-69738333D01*
X118526190Y-69833571D01*
X118526190Y-70357380D01*
X119335714Y-69833571D02*
X119002380Y-69833571D01*
X119002380Y-70357380D02*
X119002380Y-69357380D01*
X119478571Y-69357380D01*
M02*
