G04 #@! TF.GenerationSoftware,KiCad,Pcbnew,5.1.12-84ad8e8a86~92~ubuntu20.04.1*
G04 #@! TF.CreationDate,2021-12-10T13:48:26+01:00*
G04 #@! TF.ProjectId,mouse,6d6f7573-652e-46b6-9963-61645f706362,1*
G04 #@! TF.SameCoordinates,Original*
G04 #@! TF.FileFunction,Soldermask,Top*
G04 #@! TF.FilePolarity,Negative*
%FSLAX46Y46*%
G04 Gerber Fmt 4.6, Leading zero omitted, Abs format (unit mm)*
G04 Created by KiCad (PCBNEW 5.1.12-84ad8e8a86~92~ubuntu20.04.1) date 2021-12-10 13:48:26*
%MOMM*%
%LPD*%
G01*
G04 APERTURE LIST*
%ADD10C,4.602000*%
%ADD11C,3.102000*%
%ADD12C,1.702000*%
%ADD13C,1.302000*%
%ADD14C,1.902000*%
%ADD15O,1.502000X2.002000*%
%ADD16O,3.702000X2.202000*%
%ADD17O,2.002000X1.502000*%
%ADD18O,2.000000X1.400000*%
G04 APERTURE END LIST*
D10*
X101000000Y-115500000D03*
X166000000Y-115500000D03*
X166000000Y-70500000D03*
X101000000Y-70500000D03*
D11*
X104300000Y-97750000D03*
X104300000Y-111250000D03*
X103500000Y-104500000D03*
D12*
X109800000Y-101100000D03*
X109800000Y-107900000D03*
X107300000Y-101100000D03*
X107300000Y-107900000D03*
X107300000Y-103200000D03*
X107300000Y-105800000D03*
D13*
X125170000Y-94670000D03*
X122630000Y-94670000D03*
X122630000Y-89590000D03*
X125170000Y-89590000D03*
D12*
X136600000Y-79430000D03*
X131520000Y-79430000D03*
X155650000Y-74350000D03*
X155650000Y-79430000D03*
X155650000Y-107370000D03*
X155650000Y-112450000D03*
X148030000Y-74350000D03*
X148030000Y-79430000D03*
X148030000Y-107370000D03*
X148030000Y-112450000D03*
G36*
G01*
X162419000Y-77690000D02*
X162419000Y-76090000D01*
G75*
G02*
X162470000Y-76039000I51000J0D01*
G01*
X164070000Y-76039000D01*
G75*
G02*
X164121000Y-76090000I0J-51000D01*
G01*
X164121000Y-77690000D01*
G75*
G02*
X164070000Y-77741000I-51000J0D01*
G01*
X162470000Y-77741000D01*
G75*
G02*
X162419000Y-77690000I0J51000D01*
G01*
G37*
X165810000Y-76890000D03*
X142924366Y-107360989D03*
X140384366Y-107360989D03*
G36*
G01*
X139459000Y-103190000D02*
X139459000Y-101390000D01*
G75*
G02*
X139510000Y-101339000I51000J0D01*
G01*
X141310000Y-101339000D01*
G75*
G02*
X141361000Y-101390000I0J-51000D01*
G01*
X141361000Y-103190000D01*
G75*
G02*
X141310000Y-103241000I-51000J0D01*
G01*
X139510000Y-103241000D01*
G75*
G02*
X139459000Y-103190000I0J51000D01*
G01*
G37*
D14*
X142950000Y-102290000D03*
X142950000Y-99750000D03*
G36*
G01*
X139459000Y-100650000D02*
X139459000Y-98850000D01*
G75*
G02*
X139510000Y-98799000I51000J0D01*
G01*
X141310000Y-98799000D01*
G75*
G02*
X141361000Y-98850000I0J-51000D01*
G01*
X141361000Y-100650000D01*
G75*
G02*
X141310000Y-100701000I-51000J0D01*
G01*
X139510000Y-100701000D01*
G75*
G02*
X139459000Y-100650000I0J51000D01*
G01*
G37*
G36*
G01*
X137551000Y-70910000D02*
X137551000Y-72710000D01*
G75*
G02*
X137500000Y-72761000I-51000J0D01*
G01*
X135700000Y-72761000D01*
G75*
G02*
X135649000Y-72710000I0J51000D01*
G01*
X135649000Y-70910000D01*
G75*
G02*
X135700000Y-70859000I51000J0D01*
G01*
X137500000Y-70859000D01*
G75*
G02*
X137551000Y-70910000I0J-51000D01*
G01*
G37*
D15*
X136600000Y-74350000D03*
X134060000Y-71810000D03*
X134060000Y-74350000D03*
X131520000Y-71810000D03*
X131520000Y-74350000D03*
D14*
X164540000Y-85800320D03*
X164540000Y-83260320D03*
D16*
X109100000Y-88000000D03*
X109100000Y-74000000D03*
D12*
X111810000Y-80000000D03*
X111810000Y-82000000D03*
X111810000Y-84500000D03*
G36*
G01*
X111010000Y-76649000D02*
X112610000Y-76649000D01*
G75*
G02*
X112661000Y-76700000I0J-51000D01*
G01*
X112661000Y-78300000D01*
G75*
G02*
X112610000Y-78351000I-51000J0D01*
G01*
X111010000Y-78351000D01*
G75*
G02*
X110959000Y-78300000I0J51000D01*
G01*
X110959000Y-76700000D01*
G75*
G02*
X111010000Y-76649000I51000J0D01*
G01*
G37*
G36*
G01*
X141340000Y-83559000D02*
X143140000Y-83559000D01*
G75*
G02*
X143191000Y-83610000I0J-51000D01*
G01*
X143191000Y-85410000D01*
G75*
G02*
X143140000Y-85461000I-51000J0D01*
G01*
X141340000Y-85461000D01*
G75*
G02*
X141289000Y-85410000I0J51000D01*
G01*
X141289000Y-83610000D01*
G75*
G02*
X141340000Y-83559000I51000J0D01*
G01*
G37*
G36*
G01*
X141614500Y-86399000D02*
X142865500Y-86399000D01*
G75*
G02*
X143191000Y-86724500I0J-325500D01*
G01*
X143191000Y-87375500D01*
G75*
G02*
X142865500Y-87701000I-325500J0D01*
G01*
X141614500Y-87701000D01*
G75*
G02*
X141289000Y-87375500I0J325500D01*
G01*
X141289000Y-86724500D01*
G75*
G02*
X141614500Y-86399000I325500J0D01*
G01*
G37*
D14*
X142240000Y-89590000D03*
G36*
G01*
X116650000Y-101339000D02*
X118450000Y-101339000D01*
G75*
G02*
X118501000Y-101390000I0J-51000D01*
G01*
X118501000Y-103190000D01*
G75*
G02*
X118450000Y-103241000I-51000J0D01*
G01*
X116650000Y-103241000D01*
G75*
G02*
X116599000Y-103190000I0J51000D01*
G01*
X116599000Y-101390000D01*
G75*
G02*
X116650000Y-101339000I51000J0D01*
G01*
G37*
D17*
X120090000Y-102290000D03*
X117550000Y-104830000D03*
X120090000Y-104830000D03*
X117550000Y-107370000D03*
X120090000Y-107370000D03*
X117550000Y-109910000D03*
X120090000Y-109910000D03*
G36*
G01*
X162370000Y-91179000D02*
X164170000Y-91179000D01*
G75*
G02*
X164221000Y-91230000I0J-51000D01*
G01*
X164221000Y-93030000D01*
G75*
G02*
X164170000Y-93081000I-51000J0D01*
G01*
X162370000Y-93081000D01*
G75*
G02*
X162319000Y-93030000I0J51000D01*
G01*
X162319000Y-91230000D01*
G75*
G02*
X162370000Y-91179000I51000J0D01*
G01*
G37*
D14*
X165810000Y-92130000D03*
X163270000Y-94670000D03*
X165810000Y-94670000D03*
X163270000Y-97210000D03*
X165810000Y-97210000D03*
X163270000Y-99750000D03*
X165810000Y-99750000D03*
X163270000Y-102290000D03*
X165810000Y-102290000D03*
D12*
X125170000Y-74350000D03*
X115010000Y-74350000D03*
X128980000Y-112450000D03*
X139140000Y-112450000D03*
X125170000Y-76890000D03*
X115010000Y-76890000D03*
X115010000Y-79430000D03*
X125170000Y-79430000D03*
X117550000Y-89590000D03*
X117550000Y-94670000D03*
G36*
G01*
X147130000Y-83810000D02*
X148930000Y-83810000D01*
G75*
G02*
X149030000Y-83910000I0J-100000D01*
G01*
X149030000Y-85110000D01*
G75*
G02*
X148930000Y-85210000I-100000J0D01*
G01*
X147130000Y-85210000D01*
G75*
G02*
X147030000Y-85110000I0J100000D01*
G01*
X147030000Y-83910000D01*
G75*
G02*
X147130000Y-83810000I100000J0D01*
G01*
G37*
D18*
X148030000Y-87050000D03*
X148030000Y-89590000D03*
X155650000Y-89590000D03*
X155650000Y-87050000D03*
X155650000Y-84510000D03*
X148030000Y-92130000D03*
X155650000Y-92130000D03*
X148030000Y-94670000D03*
X155650000Y-94670000D03*
X148030000Y-97210000D03*
X155650000Y-97210000D03*
X148030000Y-99750000D03*
X155650000Y-99750000D03*
X148030000Y-102290000D03*
X155650000Y-102290000D03*
G36*
G01*
X129350000Y-83810000D02*
X131150000Y-83810000D01*
G75*
G02*
X131250000Y-83910000I0J-100000D01*
G01*
X131250000Y-85110000D01*
G75*
G02*
X131150000Y-85210000I-100000J0D01*
G01*
X129350000Y-85210000D01*
G75*
G02*
X129250000Y-85110000I0J100000D01*
G01*
X129250000Y-83910000D01*
G75*
G02*
X129350000Y-83810000I100000J0D01*
G01*
G37*
X130250000Y-87050000D03*
X130250000Y-89590000D03*
X137870000Y-89590000D03*
X137870000Y-87050000D03*
X137870000Y-84510000D03*
X130250000Y-92130000D03*
X137870000Y-92130000D03*
X130250000Y-94670000D03*
X137870000Y-94670000D03*
X130250000Y-97210000D03*
X137870000Y-97210000D03*
X130250000Y-99750000D03*
X137870000Y-99750000D03*
X130250000Y-102290000D03*
X137870000Y-102290000D03*
X130250000Y-104830000D03*
X137870000Y-104830000D03*
X130250000Y-107370000D03*
X137870000Y-107370000D03*
D12*
X115010000Y-71810000D03*
X120090000Y-71810000D03*
M02*
